<svg width="69" height="76" viewBox="0 0 69 76" fill="none" xmlns="http://www.w3.org/2000/svg">
<path d="M52.9441 68.0132C39.6865 68.0132 30.5823 74.8807 24.1941 74.8807C17.8058 74.8807 4.38918 71.2083 4.38918 41.8201C4.38918 12.4318 22.4384 8.1174 29.4649 8.1174C62.3683 8.1174 76.4232 68.0132 52.9441 68.0132Z" fill="#FDEDED"/>
<path d="M53.3383 8.35529L54.6936 7L57.4041 9.71057L56.0488 11.0659L53.3383 8.35529Z" fill="#E5474C"/>
<path d="M61.1301 16.1484L62.4854 14.7931L65.196 17.5037L63.8407 18.859L61.1301 16.1484Z" fill="#E5474C"/>
<path d="M53 17.5032L55.7106 14.7926L57.0659 16.1479L54.3553 18.8584L53 17.5032Z" fill="#E5474C"/>
<path d="M60.7932 9.71124L63.5038 7.00067L64.8591 8.35595L62.1485 11.0665L60.7932 9.71124Z" fill="#E5474C"/>
<path d="M16.6927 62.9649C15.9978 62.9649 15.4344 62.4016 15.4344 61.7067V52.2146C15.4344 51.5197 15.9978 50.9563 16.6927 50.9563H20.5399C21.2348 50.9563 21.7982 51.5197 21.7982 52.2146C21.7982 52.9095 21.2348 53.4728 20.5399 53.4728H17.951V61.7067C17.951 62.4016 17.3877 62.9649 16.6927 62.9649Z" fill="#E5474C"/>
<path d="M20.2343 58.129H16.6928C15.9979 58.129 15.4345 57.5657 15.4345 56.8708C15.4345 56.1759 15.9979 55.6125 16.6928 55.6125H20.2343C20.9292 55.6125 21.4926 56.1759 21.4926 56.8708C21.4926 57.5657 20.9292 58.129 20.2343 58.129Z" fill="#E5474C"/>
<path d="M31.2677 63C30.9187 63 30.5714 62.8556 30.3227 62.573L26.306 58.0092C25.8469 57.4875 25.8976 56.6924 26.4193 56.2334C26.9409 55.7741 27.736 55.8249 28.1951 56.3466L32.2118 60.9105C32.6708 61.4321 32.6202 62.2272 32.0985 62.6863C31.8595 62.8967 31.563 63 31.2677 63Z" fill="#E5474C"/>
<path d="M26.0975 63C25.4026 63 24.8392 62.4366 24.8392 61.7417V52.1796C24.8392 51.4847 25.4026 50.9213 26.0975 50.9213C26.7924 50.9213 27.3557 51.4847 27.3557 52.1796V61.7417C27.3557 62.4366 26.7924 63 26.0975 63Z" fill="#E5474C"/>
<path d="M26.118 58.419C25.4268 58.419 24.8643 57.8609 24.8599 57.1687C24.8505 55.6732 24.8496 55.2376 24.8481 54.4468C24.8471 53.9516 24.8459 53.3116 24.8422 52.1838C24.8411 51.8493 24.9732 51.5282 25.2092 51.2913C25.4453 51.0545 25.766 50.9213 26.1004 50.9213H28.6414C30.7831 50.9213 32.5254 52.6006 32.5254 54.6646C32.5254 56.7287 30.7831 58.408 28.6414 58.408C27.948 58.408 26.1439 58.4189 26.1257 58.419C26.1232 58.419 26.1206 58.419 26.118 58.419ZM27.3625 53.4378C27.3636 53.854 27.3642 54.1698 27.3647 54.4419C27.3657 54.9478 27.3664 55.3077 27.3692 55.8958C27.8454 55.8935 28.3437 55.8915 28.6415 55.8915C29.3828 55.8915 30.009 55.3297 30.009 54.6646C30.009 53.9996 29.3828 53.4378 28.6415 53.4378H27.3625Z" fill="#E5474C"/>
<path d="M40.8284 62.9563H36.8361C36.1412 62.9563 35.5778 62.3929 35.5778 61.698V52.2232C35.5778 51.5283 36.1412 50.965 36.8361 50.965H40.8284C41.5233 50.965 42.0867 51.5283 42.0867 52.2232C42.0867 52.9181 41.5233 53.4815 40.8284 53.4815H38.0943V60.4398H40.8284C41.5233 60.4398 42.0867 61.0031 42.0867 61.698C42.0867 62.3929 41.5233 62.9563 40.8284 62.9563Z" fill="#E5474C"/>
<path d="M40.534 58.2189H36.8361C36.1412 58.2189 35.5778 57.6555 35.5778 56.9606C35.5778 56.2657 36.1412 55.7024 36.8361 55.7024H40.534C41.2289 55.7024 41.7923 56.2657 41.7923 56.9606C41.7923 57.6555 41.2289 58.2189 40.534 58.2189Z" fill="#E5474C"/>
<path d="M50.3073 62.9563H46.3149C45.62 62.9563 45.0567 62.3929 45.0567 61.698V52.2232C45.0567 51.5283 45.62 50.965 46.3149 50.965H50.3073C51.0022 50.965 51.5655 51.5283 51.5655 52.2232C51.5655 52.9181 51.0022 53.4815 50.3073 53.4815H47.5732V60.4398H50.3073C51.0022 60.4398 51.5655 61.0031 51.5655 61.698C51.5655 62.3929 51.0022 62.9563 50.3073 62.9563Z" fill="#E5474C"/>
<path d="M50.0129 58.2189H46.3149C45.62 58.2189 45.0567 57.6555 45.0567 56.9606C45.0567 56.2657 45.62 55.7024 46.3149 55.7024H50.0129C50.7078 55.7024 51.2711 56.2657 51.2711 56.9606C51.2711 57.6555 50.7078 58.2189 50.0129 58.2189Z" fill="#E5474C"/>
<path d="M17.4531 26.3184C13.5879 26.3184 10.4434 23.3438 10.4434 19.6875C10.4434 19.1212 9.95802 18.6621 9.35938 18.6621C8.76073 18.6621 8.27539 19.1212 8.27539 19.6875C8.27539 24.4746 12.3925 28.3691 17.4531 28.3691C18.0518 28.3691 18.5371 27.91 18.5371 27.3437C18.5371 26.7775 18.0518 26.3184 17.4531 26.3184Z" fill="#E5474C" fill-opacity="0.62"/>
<path d="M25.5469 8.68164C29.4121 8.68164 32.5566 11.6562 32.5566 15.3125C32.5566 15.8788 33.042 16.3379 33.6406 16.3379C34.2393 16.3379 34.7246 15.8788 34.7246 15.3125C34.7246 10.5254 30.6075 6.63086 25.5469 6.63086C24.9482 6.63086 24.4629 7.08996 24.4629 7.65625C24.4629 8.22254 24.9482 8.68164 25.5469 8.68164Z" fill="#E5474C" fill-opacity="0.62"/>
<path d="M22.6562 16.3379C23.2549 16.3379 23.7402 15.8788 23.7402 15.3125C23.7402 14.7462 23.2549 14.2871 22.6562 14.2871H14.4902V11.8945H20.9219C21.5205 11.8945 22.0059 11.4354 22.0059 10.8691V1.02539C22.0059 0.459102 21.5205 0 20.9219 0H5.89062C5.29198 0 4.80664 0.459102 4.80664 1.02539V10.8691C4.80664 11.4354 5.29198 11.8945 5.89062 11.8945H12.3223V14.2871H4.08398C3.48534 14.2871 3 14.7462 3 15.3125C3 15.8788 3.48534 16.3379 4.08398 16.3379H22.6562ZM6.97461 2.05078H19.8379V9.84375H6.97461V2.05078Z" fill="#E5474C" fill-opacity="0.62"/>
<path d="M40.0711 22.9289C38.1823 21.0402 35.6711 20 33 20C30.3289 20 27.8177 21.0402 25.9289 22.9289C24.0402 24.8177 23 27.3289 23 30C23 32.6711 24.0402 35.1823 25.9289 37.0711C27.8177 38.9598 30.3289 40 33 40C35.6711 40 38.1823 38.9598 40.0711 37.0711C41.9598 35.1823 43 32.6711 43 30C43 27.3289 41.9598 24.8177 40.0711 22.9289ZM41.8082 29.4141H37.4846C37.4507 28.0455 37.2984 26.7285 37.0393 25.5309C38.1431 25.3203 39.1547 25.0234 40.0181 24.6511C41.0417 25.9909 41.6908 27.6309 41.8082 29.4141ZM39.1987 23.7207C38.4739 24.0009 37.6466 24.2278 36.7509 24.3946C36.6183 23.9445 36.4689 23.5177 36.3033 23.1187C36.0443 22.4945 35.7527 21.9575 35.4349 21.5136C36.873 21.9268 38.1615 22.6967 39.1987 23.7207ZM29.6875 29.4141C29.7225 28.0484 29.8786 26.8025 30.1184 25.7158C31.0424 25.8357 32.0124 25.8984 33 25.8984C33.9876 25.8984 34.9576 25.8357 35.8816 25.7158C36.1215 26.8024 36.2775 28.0484 36.3125 29.4141H29.6875ZM36.3125 30.5859C36.2775 31.9516 36.1214 33.1975 35.8816 34.2842C34.9576 34.1643 33.9876 34.1016 33 34.1016C32.0124 34.1016 31.0424 34.1643 30.1184 34.2842C29.8785 33.1976 29.7225 31.9516 29.6875 30.5859H36.3125ZM33 21.1719C33.9318 21.1719 34.9268 22.4484 35.582 24.5734C34.7543 24.6738 33.8861 24.7266 33 24.7266C32.1139 24.7266 31.2457 24.6738 30.418 24.5734C31.0732 22.4484 32.0682 21.1719 33 21.1719ZM30.5652 21.5136C30.2473 21.9576 29.9557 22.4945 29.6967 23.1187C29.5311 23.5177 29.3817 23.9445 29.2491 24.3946C28.3535 24.2277 27.5261 24.0009 26.8013 23.7207C27.8385 22.6967 29.127 21.9268 30.5652 21.5136ZM25.9819 24.6511C26.8453 25.0234 27.8569 25.3204 28.9607 25.5309C28.7016 26.7285 28.5493 28.0455 28.5154 29.4141H24.1918C24.3092 27.6309 24.9583 25.9909 25.9819 24.6511ZM24.1918 30.5859H28.5154C28.5493 31.9545 28.7016 33.2715 28.9607 34.4691C27.8569 34.6797 26.8453 34.9766 25.9819 35.3489C24.9583 34.0091 24.3092 32.3691 24.1918 30.5859ZM26.8012 36.2793C27.5261 35.9991 28.3534 35.7722 29.2491 35.6054C29.3817 36.0554 29.5311 36.4823 29.6966 36.8813C29.9556 37.5055 30.2473 38.0425 30.5651 38.4864C29.127 38.0732 27.8384 37.3033 26.8012 36.2793ZM33 38.8281C32.0682 38.8281 31.0732 37.5516 30.418 35.4266C31.2457 35.3262 32.1139 35.2734 33 35.2734C33.8861 35.2734 34.7543 35.3262 35.582 35.4266C34.9268 37.5516 33.9318 38.8281 33 38.8281ZM35.4348 38.4864C35.7527 38.0424 36.0443 37.5055 36.3033 36.8813C36.4689 36.4823 36.6183 36.0555 36.7509 35.6054C37.6465 35.7723 38.4739 35.9991 39.1987 36.2793C38.1615 37.3033 36.873 38.0732 35.4348 38.4864ZM40.0181 35.3489C39.1547 34.9766 38.1431 34.6796 37.0393 34.4691C37.2984 33.2715 37.4507 31.9545 37.4846 30.5859H41.8082C41.6908 32.3691 41.0417 34.0091 40.0181 35.3489Z" fill="#EE8689"/>
</svg>
