<svg width="68" height="68" viewBox="0 0 68 68" fill="none" xmlns="http://www.w3.org/2000/svg">
<g clip-path="url(#clip0)">
<path d="M62.0995 36.3351C55.3983 44.0827 54.8097 52.8744 51.5807 56.6076C48.3517 60.3408 39.424 66.3252 22.2497 51.4705C5.07551 36.6158 11.6774 23.8872 15.2291 19.781C31.8606 0.552509 73.9674 22.6141 62.0995 36.3351Z" fill="#FDEDED"/>
<path d="M57.375 12.125V19.7287C57.3749 21.192 57.0689 22.6391 56.4767 23.9771C55.8845 25.3152 55.0192 26.5147 53.9362 27.4987L47.75 33.125L47.3387 32.7487L41.5638 27.4987C40.4808 26.5147 39.6155 25.3152 39.0233 23.9771C38.4311 22.6391 38.1251 21.192 38.125 19.7287V12.125L47.75 8.625L57.375 12.125Z" fill="#F3AAAD"/>
<path d="M57.375 57.6249C57.3716 58.088 57.1861 58.5311 56.8586 58.8586C56.5312 59.186 56.0881 59.3715 55.625 59.3749H45.125C44.6613 59.3736 44.217 59.1887 43.8891 58.8608C43.5612 58.533 43.3764 58.0886 43.375 57.6249C43.3784 57.1619 43.5639 56.7187 43.8914 56.3913C44.2188 56.0639 44.6619 55.8784 45.125 55.8749H55.625C56.0887 55.8763 56.533 56.0611 56.8609 56.389C57.1888 56.7169 57.3736 57.1612 57.375 57.6249Z" fill="#F3AAAD"/>
<path d="M25 52.3749H39V59.3749H25V52.3749Z" fill="#F3AAAD"/>
<path d="M25 41.8749H39V48.8749H25V41.8749Z" fill="#F3AAAD"/>
<path d="M10.125 53.2499H19.75V59.3749H10.125V53.2499Z" fill="#F3AAAD"/>
<path d="M51.25 49.7499H53V51.4999H51.25V49.7499Z" fill="#E5474C"/>
<path d="M56.5 55.1574V48.8749C56.4979 48.1794 56.2207 47.5129 55.7288 47.0211C55.237 46.5292 54.5705 46.252 53.875 46.2499H46.875C46.1794 46.252 45.5129 46.5292 45.0211 47.0211C44.5293 47.5129 44.252 48.1794 44.25 48.8749V55.1574C43.6713 55.3674 43.1848 55.7741 42.8755 56.3064C42.5663 56.8387 42.454 57.4628 42.5582 58.0695C42.6625 58.6763 42.9767 59.227 43.4458 59.6256C43.915 60.0242 44.5094 60.2452 45.125 60.2499H55.625C56.2406 60.2452 56.8349 60.0242 57.3041 59.6256C57.7733 59.227 58.0875 58.6763 58.1917 58.0695C58.2959 57.4628 58.1836 56.8387 57.8744 56.3064C57.5652 55.7741 57.0787 55.3674 56.5 55.1574ZM46 48.8749C46 48.6429 46.0922 48.4203 46.2562 48.2562C46.4203 48.0921 46.6429 47.9999 46.875 47.9999H53.875C54.107 47.9999 54.3296 48.0921 54.4937 48.2562C54.6578 48.4203 54.75 48.6429 54.75 48.8749V54.9999H46V48.8749ZM55.625 58.4999H45.125C44.8929 58.4999 44.6703 58.4078 44.5062 58.2437C44.3422 58.0796 44.25 57.857 44.25 57.6249C44.25 57.3929 44.3422 57.1703 44.5062 57.0062C44.6703 56.8421 44.8929 56.7499 45.125 56.7499H55.625C55.857 56.7499 56.0796 56.8421 56.2437 57.0062C56.4078 57.1703 56.5 57.3929 56.5 57.6249C56.5 57.857 56.4078 58.0796 56.2437 58.2437C56.0796 58.4078 55.857 58.4999 55.625 58.4999Z" fill="#E5474C"/>
<path d="M19.75 52.3749H18V49.7499C18 49.5179 17.9078 49.2953 17.7437 49.1312C17.5796 48.9671 17.3571 48.8749 17.125 48.8749H12.75V47.9999C12.75 47.7679 12.6578 47.5453 12.4937 47.3812C12.3296 47.2171 12.1071 47.1249 11.875 47.1249H6.625C6.39294 47.1249 6.17038 47.2171 6.00628 47.3812C5.84219 47.5453 5.75 47.7679 5.75 47.9999V59.3749C5.75 59.607 5.84219 59.8296 6.00628 59.9937C6.17038 60.1578 6.39294 60.2499 6.625 60.2499H19.75C19.9821 60.2499 20.2046 60.1578 20.3687 59.9937C20.5328 59.8296 20.625 59.607 20.625 59.3749V53.2499C20.625 53.0179 20.5328 52.7953 20.3687 52.6312C20.2046 52.4671 19.9821 52.3749 19.75 52.3749ZM9.25 53.2499V58.4999H7.5V48.8749H11V49.7499C11 49.982 11.0922 50.2046 11.2563 50.3687C11.4204 50.5328 11.6429 50.6249 11.875 50.6249H16.25V52.3749H10.125C9.89294 52.3749 9.67038 52.4671 9.50628 52.6312C9.34219 52.7953 9.25 53.0179 9.25 53.2499ZM18.875 58.4999H11V54.1249H18.875V58.4999Z" fill="#E5474C"/>
<path d="M39 49.7499C39.2321 49.7499 39.4546 49.6578 39.6187 49.4937C39.7828 49.3296 39.875 49.107 39.875 48.8749V41.8749C39.875 41.6429 39.7828 41.4203 39.6187 41.2562C39.4546 41.0921 39.2321 40.9999 39 40.9999H25C24.7679 40.9999 24.5454 41.0921 24.3813 41.2562C24.2172 41.4203 24.125 41.6429 24.125 41.8749V48.8749C24.125 49.107 24.2172 49.3296 24.3813 49.4937C24.5454 49.6578 24.7679 49.7499 25 49.7499H25.875V51.4999H25C24.7679 51.4999 24.5454 51.5921 24.3813 51.7562C24.2172 51.9203 24.125 52.1429 24.125 52.3749V59.3749C24.125 59.607 24.2172 59.8296 24.3813 59.9937C24.5454 60.1578 24.7679 60.2499 25 60.2499H39C39.2321 60.2499 39.4546 60.1578 39.6187 59.9937C39.7828 59.8296 39.875 59.607 39.875 59.3749V52.3749C39.875 52.1429 39.7828 51.9203 39.6187 51.7562C39.4546 51.5921 39.2321 51.4999 39 51.4999H38.125V49.7499H39ZM38.125 58.4999H25.875V53.2499H38.125V58.4999ZM27.625 51.4999V49.7499H36.375V51.4999H27.625ZM25.875 47.9999V42.7499H38.125V47.9999H25.875Z" fill="#E5474C"/>
<path d="M27.625 44.4999H29.375V46.2499H27.625V44.4999Z" fill="#E5474C"/>
<path d="M31.125 44.4999H32.875V46.2499H31.125V44.4999Z" fill="#E5474C"/>
<path d="M34.625 44.4999H36.375V46.2499H34.625V44.4999Z" fill="#E5474C"/>
<path d="M27.625 54.9999H29.375V56.7499H27.625V54.9999Z" fill="#E5474C"/>
<path d="M31.125 54.9999H32.875V56.7499H31.125V54.9999Z" fill="#E5474C"/>
<path d="M34.625 54.9999H36.375V56.7499H34.625V54.9999Z" fill="#E5474C"/>
<path d="M57.6725 11.3025L48.0475 7.80246C47.8553 7.73243 47.6446 7.73243 47.4525 7.80246L37.8275 11.3025C37.6578 11.3627 37.5111 11.4743 37.4076 11.6216C37.3041 11.769 37.249 11.9449 37.25 12.125C36.2583 12.1233 35.2754 12.3104 34.3537 12.6762C33.1026 10.8551 31.3474 9.43849 29.3032 8.59998C27.2591 7.76146 25.0147 7.53745 22.8451 7.95539C20.6755 8.37333 18.6749 9.41508 17.0885 10.953C15.5021 12.4909 14.3988 14.4581 13.9137 16.6137C11.519 16.9852 9.35243 18.2463 7.84686 20.1453C6.34128 22.0444 5.60748 24.4414 5.79199 26.8578C5.97651 29.2742 7.06577 31.532 8.84222 33.1804C10.6187 34.8288 12.9516 35.7464 15.375 35.75H41.625C43.6761 35.7486 45.6727 35.0892 47.3212 33.8687C47.4766 33.969 47.6613 34.014 47.8454 33.9966C48.0296 33.9791 48.2024 33.9002 48.3362 33.7725L54.5312 28.1462C55.7019 27.0785 56.6372 25.7785 57.2774 24.3292C57.9177 22.88 58.2489 21.3131 58.25 19.7287V12.125C58.2509 11.9449 58.1959 11.769 58.0924 11.6216C57.9889 11.4743 57.8422 11.3627 57.6725 11.3025ZM41.625 34H15.375C13.3574 33.9792 11.4247 33.1848 9.97575 31.7807C8.52677 30.3766 7.67201 28.4699 7.58782 26.4539C7.50364 24.438 8.19645 22.4667 9.52333 20.9466C10.8502 19.4266 12.7099 18.4738 14.7187 18.285C14.9143 18.2684 15.0987 18.1871 15.2429 18.054C15.3871 17.9209 15.4828 17.7435 15.515 17.55C15.8354 15.6016 16.7481 13.7993 18.1292 12.3881C19.5102 10.977 21.2924 10.0255 23.2333 9.66308C25.1743 9.30071 27.1798 9.54504 28.9769 10.3628C30.7741 11.1807 32.2757 12.5322 33.2775 14.2337C33.3911 14.4262 33.5741 14.5678 33.7889 14.6296C34.0036 14.6915 34.2339 14.6688 34.4325 14.5662C35.3023 14.1124 36.2689 13.8753 37.25 13.875V19.7287C37.251 21.3131 37.5823 22.88 38.2225 24.3292C38.8628 25.7785 39.7981 27.0785 40.9687 28.1462L45.965 32.6875C44.6781 33.5407 43.169 33.9971 41.625 34ZM56.5 19.7287C56.4991 21.0697 56.2184 22.3957 55.676 23.6221C55.1337 24.8485 54.3414 25.9483 53.35 26.8512L47.75 31.9437L42.15 26.8512C41.1585 25.9483 40.3663 24.8485 39.8239 23.6221C39.2815 22.3957 39.0009 21.0697 39 19.7287V12.7375L47.75 9.55246L56.5 12.7375V19.7287Z" fill="#E5474C"/>
<path d="M25.7272 31.101C24.6363 31.101 23.7488 30.2135 23.7488 29.1226C23.7488 28.0318 24.6363 27.1443 25.7272 27.1443C26.8181 27.1443 27.7055 28.0318 27.7055 29.1226C27.7055 30.2135 26.8181 31.101 25.7272 31.101ZM25.7272 28.4071C25.3326 28.4071 25.0116 28.7281 25.0116 29.1226C25.0116 29.5172 25.3326 29.8382 25.7272 29.8382C26.1218 29.8382 26.4428 29.5172 26.4428 29.1226C26.4428 28.7281 26.1218 28.4071 25.7272 28.4071Z" fill="#E5474C" fill-opacity="0.42"/>
<path d="M29.156 26.3673C28.9944 26.3673 28.8328 26.3057 28.7095 26.1824C27.065 24.5379 24.3893 24.5379 22.7448 26.1824C22.4983 26.4289 22.0985 26.4289 21.8519 26.1824C21.6053 25.9358 21.6053 25.536 21.8519 25.2895C23.9888 23.1526 27.4656 23.1526 29.6024 25.2895C29.849 25.536 29.849 25.9358 29.6024 26.1824C29.4791 26.3057 29.3175 26.3673 29.156 26.3673Z" fill="#E5474C" fill-opacity="0.42"/>
<path d="M20.0125 24.0815C19.8509 24.0815 19.6893 24.0199 19.566 23.8965C19.3195 23.65 19.3195 23.2502 19.566 23.0036C21.2117 21.3579 23.3998 20.4516 25.7272 20.4516C28.0545 20.4516 30.2426 21.3579 31.8883 23.0036C32.1349 23.2502 32.1349 23.65 31.8883 23.8965C31.6418 24.1431 31.242 24.1431 30.9954 23.8965C29.5882 22.4894 27.7172 21.7144 25.7272 21.7144C23.7371 21.7144 21.8661 22.4894 20.4589 23.8965C20.3357 24.0198 20.1741 24.0815 20.0125 24.0815Z" fill="#E5474C" fill-opacity="0.42"/>
<path d="M33.823 21.6583C33.6614 21.6583 33.4998 21.5966 33.3766 21.4733C31.3061 19.403 28.5895 18.2628 25.7272 18.2628C22.8648 18.2628 20.1482 19.403 18.0778 21.4733C17.8313 21.7199 17.4315 21.7199 17.1849 21.4733C16.9384 21.2267 16.9384 20.827 17.1849 20.5804C19.4938 18.2715 22.5275 17 25.7272 17C28.9268 17 31.9605 18.2715 34.2694 20.5804C34.516 20.827 34.516 21.2268 34.2694 21.4733C34.1461 21.5966 33.9845 21.6583 33.823 21.6583Z" fill="#E5474C" fill-opacity="0.42"/>
<path d="M43.9936 19.3813L42.7563 20.6186L46.2563 24.1186C46.4204 24.2826 46.643 24.3748 46.875 24.3748C47.107 24.3748 47.3295 24.2826 47.4936 24.1186L53.6186 17.9936L52.3813 16.7563L46.875 22.2627L43.9936 19.3813Z" fill="#E5474C"/>
</g>
<defs>
<clipPath id="clip0">
<rect width="68" height="68" fill="white"/>
</clipPath>
</defs>
</svg>
