<svg width="58" height="58" viewBox="0 0 58 58" fill="none" xmlns="http://www.w3.org/2000/svg">
<g clip-path="url(#clip0)">
<path d="M31.274 38.8397C36.141 38.8397 40.554 36.8602 43.7566 33.6702C46.9466 30.4676 48.9262 26.0545 48.9262 21.1876C48.9262 11.441 41.0205 3.5354 31.274 3.5354C21.5275 3.5354 13.6219 11.441 13.6219 21.1876C13.6219 26.0545 15.6014 30.4676 18.7914 33.6702C21.994 36.8602 26.4071 38.8397 31.274 38.8397ZM31.274 11.1006C36.8471 11.1006 41.361 15.6145 41.361 21.1876C41.361 26.7606 36.8471 31.2745 31.274 31.2745C25.701 31.2745 21.1871 26.7606 21.1871 21.1876C21.1871 15.6145 25.701 11.1006 31.274 11.1006Z" fill="#FDEDED"/>
<path d="M28.9995 30.2608C35.2572 30.2608 40.3474 25.1694 40.3474 18.913C40.3474 12.6566 35.2572 7.56519 28.9995 7.56519C22.7418 7.56519 17.6517 12.6566 17.6517 18.913C17.6517 25.1694 22.7418 30.2608 28.9995 30.2608ZM28.9995 10.0869C33.8652 10.0869 37.8256 14.0461 37.8256 18.913C37.8256 23.78 33.8652 27.7391 28.9995 27.7391C24.1338 27.7391 20.1734 23.78 20.1734 18.913C20.1734 14.0461 24.1338 10.0869 28.9995 10.0869Z" fill="#E5474C"/>
<path d="M5.33299 52.5014C5.65325 52.8872 6.16895 53.0448 6.64934 52.9086L14.4692 50.6743L17.7841 57.304C17.9984 57.7302 18.4347 58 18.9126 58C19.3904 58 19.8267 57.7302 20.041 57.3027L28.9995 39.3845L37.958 57.3027C38.1723 57.7302 38.6086 58 39.0865 58C39.5643 58 40.0006 57.7302 40.2149 57.3027L43.5298 50.6731L51.3497 52.9073C51.8301 53.0423 52.3458 52.8847 52.666 52.5001C52.985 52.1155 53.0481 51.5784 52.8236 51.1308L43.0355 31.5558C46.1751 28.0657 47.9126 23.6224 47.9126 18.913C47.9126 8.48439 39.4282 0 28.9995 0C18.5709 0 10.0865 8.48439 10.0865 18.913C10.0865 23.6224 11.8239 28.0657 14.9635 31.5558L5.17538 51.1308C4.95221 51.5797 5.01525 52.1155 5.33299 52.5014ZM49.2856 49.6959L43.2158 47.9622C42.632 47.792 42.0129 48.0681 41.7419 48.6103L39.0865 53.9198L30.9879 37.7227C34.7327 37.3318 38.2442 35.8427 41.1442 33.4118L49.2856 49.6959ZM12.6082 18.913C12.6082 9.87513 19.9616 2.52174 28.9995 2.52174C38.0374 2.52174 45.3908 9.87513 45.3908 18.913C45.3908 23.2782 43.6861 27.3949 40.5907 30.5042C37.4826 33.5997 33.3659 35.3043 28.9995 35.3043C24.6331 35.3043 20.5164 33.5997 17.4083 30.5042C14.3129 27.3949 12.6082 23.2782 12.6082 18.913ZM16.8548 33.413C19.7548 35.844 23.2663 37.3331 27.0111 37.724L18.9126 53.9198L16.2584 48.6103C16.0403 48.174 15.5977 47.913 15.1299 47.913C15.0152 47.913 14.8979 47.9282 14.7845 47.9622L8.71464 49.6959L16.8548 33.413Z" fill="#E5474C"/>
</g>
<defs>
<clipPath id="clip0">
<rect width="58" height="58" fill="white"/>
</clipPath>
</defs>
</svg>
