<svg width="58" height="58" viewBox="0 0 58 58" fill="none" xmlns="http://www.w3.org/2000/svg">
<g clip-path="url(#clip0)">
<path d="M42.775 24.2271V39.2104C42.775 40.8115 44.074 42.1104 45.675 42.1104H47.6083C49.2094 42.1104 50.5083 40.8115 50.5083 39.2104V38.3646H54.1333C55.7344 38.3646 57.0333 37.0656 57.0333 35.4646V27.9729C57.0333 26.3719 55.7344 25.0729 54.1333 25.0729H50.5083V24.2271C50.5083 22.626 49.2094 21.3271 47.6083 21.3271H45.675C44.074 21.3271 42.775 22.626 42.775 24.2271Z" fill="#FEF6F6"/>
<path d="M37.8209 56.7313C39.5559 56.7313 40.9625 55.3247 40.9625 53.5896C40.9625 51.8545 39.5559 50.4479 37.8209 50.4479C36.0858 50.4479 34.6792 51.8545 34.6792 53.5896C34.6792 55.3247 36.0858 56.7313 37.8209 56.7313Z" fill="#FEF6F6"/>
<path d="M50.5083 39.2104C50.5083 40.8115 49.2094 42.1104 47.6083 42.1104H45.675C44.074 42.1104 42.775 40.8115 42.775 39.2104V24.2271C42.775 22.626 44.074 21.3271 45.675 21.3271H47.6083C49.2094 21.3271 50.5083 22.626 50.5083 24.2271V39.2104Z" fill="#FDEDED"/>
<path d="M15.225 24.2271V39.2104C15.225 40.8115 13.926 42.1104 12.325 42.1104H10.3917C8.79063 42.1104 7.49167 40.8115 7.49167 39.2104V38.3646H3.86667C2.26563 38.3646 0.966667 37.0656 0.966667 35.4646V27.9729C0.966667 26.3719 2.26563 25.0729 3.86667 25.0729H7.49167V24.2271C7.49167 22.626 8.79063 21.3271 10.3917 21.3271H12.325C13.926 21.3271 15.225 22.626 15.225 24.2271Z" fill="#FDEDED"/>
<path d="M15.225 24.2271V39.2104C15.225 40.8115 13.926 42.1104 12.325 42.1104H10.3917C8.79062 42.1104 7.49166 40.8115 7.49166 39.2104C7.49166 38.6303 7.49166 24.856 7.49166 24.2271C7.49166 22.626 8.79062 21.3271 10.3917 21.3271H12.325C13.926 21.3271 15.225 22.626 15.225 24.2271Z" fill="#FDEDED"/>
<path d="M15.1359 23.5113C15.3091 24.1931 14.8403 24.8575 14.1641 24.9429C12.4101 25.1643 11.1167 26.6968 11.1167 28.4648V39.2224C11.1167 41.5789 7.49166 41.712 7.49166 39.2104V24.2271C7.49166 22.6254 8.79002 21.3271 10.3917 21.3271H12.325C13.6795 21.3271 14.8173 22.2558 15.1359 23.5113Z" fill="#FEF6F6"/>
<path d="M50.4457 23.5113C50.6189 24.1931 50.1501 24.8575 49.4739 24.9429C47.7197 25.1643 46.4263 26.6969 46.4263 28.465V39.2225C46.4263 41.579 42.8013 41.7122 42.8013 39.2105V24.2272C42.8013 22.6256 44.0997 21.3272 45.7013 21.3272H47.6347C48.9893 21.3271 50.127 22.2558 50.4457 23.5113Z" fill="#FEF6F6"/>
<path d="M7.49166 25.0729V27.4896H6.28333C4.68168 27.4896 3.38333 28.7886 3.38333 30.3901C3.38333 32.7546 3.38212 34.389 3.38164 35.5255C3.38091 37.0729 1.05173 37.1641 0.97077 35.6189C0.964365 35.4985 0.966661 27.853 0.966661 27.9729C0.966661 26.3713 2.26502 25.0729 3.86666 25.0729H7.49166Z" fill="#FEF6F6"/>
<path d="M50.5083 25.0729H52.925V38.3646H50.5083V25.0729Z" fill="#FDEDED"/>
<path d="M1.93333 27.9729V35.4646C1.93333 36.5306 2.80067 37.3979 3.86666 37.3979C4.40051 37.3979 4.83333 37.8307 4.83333 38.3646C4.83333 38.8984 4.40051 39.3312 3.86666 39.3312C1.73456 39.3312 -1.90735e-06 37.5967 -1.90735e-06 35.4646V27.9729C-1.90735e-06 25.8408 1.73456 24.1062 3.86666 24.1062C4.40051 24.1062 4.83333 24.5391 4.83333 25.0729C4.83333 25.6067 4.40051 26.0396 3.86666 26.0396C2.80067 26.0396 1.93333 26.9069 1.93333 27.9729ZM54.1333 24.1062C53.5995 24.1062 53.1667 24.5391 53.1667 25.0729C53.1667 25.6067 53.5995 26.0396 54.1333 26.0396C55.1993 26.0396 56.0667 26.9069 56.0667 27.9729V35.4646C56.0667 36.5306 55.1993 37.3979 54.1333 37.3979C53.5995 37.3979 53.1667 37.8307 53.1667 38.3646C53.1667 38.8984 53.5995 39.3312 54.1333 39.3312C56.2654 39.3312 58 37.5967 58 35.4646V27.9729C58 25.8408 56.2654 24.1062 54.1333 24.1062ZM12.0833 19.1521V20.3604H12.325C14.4571 20.3604 16.1917 22.095 16.1917 24.2271V39.2104C16.1917 41.3425 14.4571 43.0771 12.325 43.0771H10.3917C8.25956 43.0771 6.525 41.3425 6.525 39.2104V24.2271C6.525 22.1763 8.13015 20.4939 10.15 20.3687V19.1521C10.15 8.7581 18.606 0.302063 29 0.302063C39.394 0.302063 47.85 8.7581 47.85 19.1521V20.3687C49.8698 20.494 51.475 22.1763 51.475 24.2271V39.2104C51.475 41.3425 49.7404 43.0771 47.6083 43.0771H45.675C43.5429 43.0771 41.8083 41.3425 41.8083 39.2104V24.2271C41.8083 22.095 43.5429 20.3604 45.675 20.3604H45.9167V19.1521C45.9167 9.82421 38.3278 2.2354 29 2.2354C19.6721 2.2354 12.0833 9.82421 12.0833 19.1521ZM47.6083 22.2937H45.675C44.609 22.2937 43.7417 23.1611 43.7417 24.2271V39.2104C43.7417 40.2764 44.609 41.1437 45.675 41.1437H47.6083C48.6743 41.1437 49.5417 40.2764 49.5417 39.2104V24.2271C49.5417 23.1611 48.6743 22.2937 47.6083 22.2937ZM10.3917 22.2937C9.32567 22.2937 8.45833 23.1611 8.45833 24.2271V39.2104C8.45833 40.2764 9.32567 41.1437 10.3917 41.1437H12.325C13.391 41.1437 14.2583 40.2764 14.2583 39.2104V24.2271C14.2583 23.1611 13.391 22.2937 12.325 22.2937H10.3917ZM55.2208 42.9562C55.2208 49.3525 50.0171 54.5562 43.6208 54.5562H41.8132C41.3772 56.3565 39.7531 57.6979 37.8208 57.6979C35.5554 57.6979 33.7125 55.8549 33.7125 53.5896C33.7125 51.3242 35.5554 49.4812 37.8208 49.4812C39.7532 49.4812 41.3772 50.8226 41.8132 52.6229H43.6208C48.951 52.6229 53.2875 48.2864 53.2875 42.9562C53.2875 42.4224 53.7203 41.9896 54.2542 41.9896C54.788 41.9896 55.2208 42.4224 55.2208 42.9562ZM39.9958 53.5896C39.9958 52.3903 39.0201 51.4146 37.8208 51.4146C36.6216 51.4146 35.6458 52.3903 35.6458 53.5896C35.6458 54.7888 36.6216 55.7646 37.8208 55.7646C39.0201 55.7646 39.9958 54.7888 39.9958 53.5896ZM37.6613 32.6137C37.8108 32.1012 37.5164 31.5644 37.004 31.4151C36.4917 31.2652 35.9548 31.5598 35.8053 32.0723C34.9289 35.0774 32.1304 37.1763 29 37.1763C25.8696 37.1763 23.0712 35.0774 22.1947 32.0723C22.0452 31.56 21.5086 31.2649 20.996 31.4151C20.4834 31.5644 20.1892 32.1012 20.3387 32.6137C21.4542 36.4385 25.0159 39.1097 29 39.1097C32.9841 39.1097 36.5458 36.4386 37.6613 32.6137ZM22.8777 23.1798C23.9326 23.1798 24.7909 24.0382 24.7909 25.0931C24.7909 26.148 23.9326 27.0062 22.8777 27.0062C21.8229 27.0062 20.9646 26.148 20.9646 25.0931C20.9646 24.0382 21.8229 23.1798 22.8777 23.1798ZM22.8577 25.0931C22.8577 25.1154 22.8979 25.1153 22.8979 25.0931C22.8979 25.0708 22.8577 25.0708 22.8577 25.0931ZM35.1223 23.2402C36.1439 23.2402 36.975 24.0714 36.975 25.0931C36.975 26.1147 36.1439 26.9458 35.1223 26.9458C34.1006 26.9458 33.2695 26.1147 33.2695 25.0931C33.2695 24.0714 34.1006 23.2402 35.1223 23.2402ZM35.0417 25.0931C35.0417 25.1994 35.2027 25.1994 35.2027 25.0931C35.2027 24.9864 35.0417 24.9864 35.0417 25.0931Z" fill="#E5474C"/>
</g>
<defs>
<clipPath id="clip0">
<rect width="58" height="58" fill="white"/>
</clipPath>
</defs>
</svg>
