<svg width="56" height="56" viewBox="0 0 56 56" fill="none" xmlns="http://www.w3.org/2000/svg">
<g clip-path="url(#clip0)">
<path d="M54.5607 19.7225C53.6964 17.1419 50.2637 15.7785 48.6325 13.624C46.977 11.4572 46.6849 7.9149 44.4207 6.33243C42.1688 4.76214 38.5778 5.57772 35.8876 4.73779C33.2826 3.93439 30.8846 1.21985 27.9996 1.21985C25.1146 1.21985 22.7166 3.93439 20.1238 4.73779C17.4214 5.57772 13.8304 4.77431 11.5785 6.33243C9.31432 7.9149 9.02217 11.4572 7.36667 13.624C5.73551 15.7785 2.31495 17.1419 1.4385 19.7225C0.586406 22.218 2.49754 25.2368 2.49754 28.0001C2.49754 30.7633 0.586406 33.7821 1.4385 36.2776C2.31495 38.8582 5.73551 40.2216 7.36667 42.3762C9.02217 44.5429 9.31432 48.0852 11.5906 49.6677C13.8304 51.238 17.4214 50.4224 20.1238 51.2623C22.7166 52.0779 25.1146 54.7803 27.9996 54.7803C30.8846 54.7803 33.2826 52.0779 35.8876 51.2623C38.5778 50.4224 42.1688 51.238 44.4207 49.6677C46.6849 48.0852 46.977 44.5429 48.6325 42.3762C50.2637 40.2216 53.6964 38.8582 54.5607 36.2776C55.4128 33.7821 53.5017 30.7633 53.5017 28.0001C53.5017 25.2368 55.4128 22.218 54.5607 19.7225ZM27.9996 45.042C18.59 45.042 10.9577 37.4096 10.9577 28.0001C10.9577 18.5905 18.59 10.9581 27.9996 10.9581C33.2217 10.9581 37.8961 13.3075 41.0123 17.008C43.5321 19.9782 45.0416 23.8126 45.0416 28.0001C45.0416 37.4096 37.4092 45.042 27.9996 45.042Z" fill="#FDEDED"/>
<path d="M55.7159 19.3364C55.0841 17.452 53.4968 16.2189 51.9606 15.0272C51.0391 14.3102 50.1675 13.6346 49.6015 12.8848C49.0221 12.1288 48.6155 11.1148 48.1846 10.0424C47.481 8.28952 46.7518 6.47577 45.1182 5.33395C43.5029 4.20797 41.4968 4.10085 39.5577 3.9986C38.3489 3.93408 37.2071 3.87322 36.2467 3.57255C35.3471 3.29501 34.4183 2.71558 33.4348 2.10207C31.8572 1.11851 30.069 0.0022583 27.9996 0.0022583C25.9266 0.0022583 24.1372 1.12094 22.5596 2.10694C21.5797 2.71923 20.657 3.29744 19.7623 3.57376C18.7982 3.87322 17.6527 3.93651 16.4391 4.00225C14.5012 4.10693 12.4975 4.21649 10.881 5.33517C9.2486 6.47698 8.52066 8.28952 7.81586 10.0424C7.38494 11.1148 6.97837 12.1288 6.3965 12.8896C5.83047 13.6358 4.96011 14.3126 4.03863 15.0296C2.50729 16.2213 0.923607 17.452 0.285752 19.329C-0.335062 21.1489 0.178631 23.0174 0.675282 24.8251C0.985689 25.9571 1.27905 27.0247 1.27905 27.9997C1.27905 28.9748 0.985689 30.0436 0.675282 31.1744C0.178631 32.9809 -0.335062 34.8506 0.284534 36.6692C0.923607 38.5475 2.50729 39.7794 4.03863 40.9699C4.96011 41.6869 5.83047 42.3637 6.39772 43.1147C6.97471 43.8695 7.3825 44.8798 7.8122 45.9498C8.51944 47.7063 9.25103 49.5237 10.8895 50.6643C12.4987 51.7915 14.506 51.8986 16.4452 52.0009C17.6564 52.0654 18.7994 52.1263 19.7574 52.4245C20.6472 52.7033 21.5675 53.279 22.5425 53.8877C24.1262 54.8761 25.9205 55.9972 27.9996 55.9972C30.0751 55.9972 31.8681 54.8786 33.4506 53.8926C34.4305 53.2815 35.3544 52.7045 36.2516 52.4233C37.2071 52.1251 38.3489 52.0642 39.5577 51.9997C41.498 51.8974 43.5029 51.7903 45.1194 50.6631C46.7518 49.5213 47.4798 47.7088 48.1846 45.9559C48.6155 44.8835 49.022 43.8695 49.6039 43.1087C50.1687 42.3637 51.0403 41.6881 51.9618 40.9711C53.498 39.7794 55.0853 38.5463 55.7147 36.6692C56.3355 34.8494 55.8218 32.9809 55.3251 31.1732C55.0147 30.0411 54.7214 28.9736 54.7214 27.9985C54.7214 27.0235 55.0147 25.9547 55.3251 24.8239C55.8194 23.0174 56.333 21.1489 55.7159 19.3364ZM52.977 31.8196C53.3945 33.3387 53.7889 34.7739 53.4079 35.8914C53.0111 37.077 51.7755 38.0362 50.4682 39.0515C49.4627 39.8329 48.4207 40.6412 47.666 41.637C46.8869 42.657 46.3988 43.8743 45.9253 45.0514C45.3276 46.5402 44.7628 47.9449 43.7244 48.6704C42.68 49.3996 41.1 49.4836 39.4274 49.5712C38.1225 49.6406 36.7726 49.7124 35.5248 50.1032C34.3307 50.4769 33.2278 51.1646 32.1615 51.8293C30.73 52.7203 29.3788 53.5627 27.9996 53.5627C26.6192 53.5627 25.2668 52.7179 23.8341 51.822C22.7726 51.1598 21.6758 50.4744 20.4853 50.0995C19.234 49.7112 17.8828 49.6394 16.5766 49.5688C14.9053 49.4811 13.3265 49.3959 12.2857 48.6668C11.2389 47.9388 10.6728 46.5304 10.0727 45.0405C9.59917 43.867 9.11226 42.6534 8.33685 41.6406C7.57849 40.6388 6.53893 39.8305 5.53345 39.0478C4.22853 38.0326 2.9942 37.0734 2.59007 35.8829C2.21027 34.7727 2.60589 33.3375 3.0222 31.8184C3.36182 30.5816 3.71362 29.3035 3.71362 27.9985C3.71362 26.6936 3.36182 25.4155 3.0222 24.1787C2.60467 22.6595 2.21027 21.2244 2.59128 20.113C2.9942 18.9237 4.22853 17.9645 5.53345 16.9493C6.53893 16.1665 7.57849 15.3583 8.33442 14.3613C9.11348 13.3412 9.60161 12.124 10.0751 10.9468C10.6728 9.45811 11.2376 8.05336 12.2723 7.3303C13.3168 6.60601 14.898 6.5208 16.5718 6.43073C17.8803 6.35891 19.234 6.28709 20.4853 5.89756C21.6795 5.5275 22.7836 4.8373 23.8511 4.17023C25.2778 3.27918 26.6253 2.43682 27.9996 2.43682C29.3715 2.43682 30.719 3.27675 32.1444 4.1678C33.2181 4.83852 34.327 5.52994 35.5248 5.89877C36.7713 6.2883 38.1213 6.36134 39.4262 6.43073C41.0988 6.51837 42.6788 6.60358 43.722 7.3303C44.7616 8.05701 45.3252 9.46176 45.9241 10.9505C46.3976 12.1276 46.8857 13.3449 47.6623 14.3601C48.4195 15.3607 49.4615 16.169 50.467 16.9505C51.7743 17.9657 53.0099 18.9249 53.4091 20.1178C53.7889 21.228 53.3933 22.6632 52.977 24.1824C52.6362 25.4167 52.2844 26.696 52.2844 27.9997C52.2844 29.3035 52.6362 30.5828 52.977 31.8196Z" fill="#E5474C"/>
<path d="M41.9412 16.2083C38.4549 12.0987 33.3727 9.74084 27.9996 9.74084C17.9315 9.74084 9.74039 17.9319 9.74039 28.0001C9.74039 38.0682 17.9315 46.2593 27.9996 46.2593C38.0678 46.2593 46.2589 38.0682 46.2589 28.0001C46.2589 23.7311 44.7567 19.5899 42.0264 16.3215C42.0008 16.2825 41.9728 16.2448 41.9412 16.2083ZM27.9996 43.8247C19.2741 43.8247 12.175 36.7256 12.175 28.0001C12.175 19.2746 19.2741 12.1754 27.9996 12.1754C32.3465 12.1754 36.4585 13.9733 39.4469 17.1091L27.8426 33.4243L21.5565 27.1395C21.0806 26.6635 20.3113 26.6635 19.8353 27.1395C19.3594 27.6154 19.3594 28.3847 19.8353 28.8607L27.139 36.1644C27.3679 36.3945 27.6783 36.521 27.9996 36.521C28.0325 36.521 28.0678 36.5198 28.1007 36.5162C28.4585 36.487 28.7848 36.3007 28.9905 36.0098L41.044 19.0628C42.8419 21.6812 43.8243 24.7974 43.8243 28.0001C43.8243 36.7256 36.7251 43.8247 27.9996 43.8247Z" fill="#E5474C"/>
</g>
<defs>
<clipPath id="clip0">
<rect width="56" height="56" fill="white"/>
</clipPath>
</defs>
</svg>
