<svg width="64" height="64" viewBox="0 0 64 64" fill="none" xmlns="http://www.w3.org/2000/svg">
<g clip-path="url(#clip0)">
<path d="M35.3334 19.3561V45.0895C35.3334 47.4455 33.4227 49.3561 31.0667 49.3561H5.33335C2.97735 49.3561 1.06668 47.4455 1.06668 45.0895V19.3561C1.06668 17.0001 2.97735 15.0895 5.33335 15.0895H31.0667C33.4227 15.0895 35.3334 17.0001 35.3334 19.3561Z" fill="#FDEDED"/>
<path d="M31.0825 20.4228H27.2C15.7125 20.4228 6.4 29.7353 6.4 41.2228V45.1055C6.4 48.5404 1.23093 48.7224 1.07133 45.2912C1.064 45.1341 1.06667 19.2217 1.06667 19.3561C1.06667 16.9997 2.97693 15.0895 5.33333 15.0895H31.0667C34.7337 15.0895 34.5587 20.4228 31.0825 20.4228Z" fill="#FEF6F6"/>
<path d="M58.6667 11.3561H48.2667C45.9107 11.3561 44 13.2668 44 15.6228V49.4895C44 51.8455 45.9107 53.7561 48.2667 53.7561H58.6667C61.0239 53.7561 62.9333 51.8468 62.9333 49.4895V15.6228C62.9333 13.2668 61.0227 11.3561 58.6667 11.3561Z" fill="#FDEDED"/>
<path d="M58.7304 15.3557C58.3004 15.3557 57.8253 15.3559 57.3001 15.3559C52.1643 15.3563 48 19.5211 48 24.6569C47.9999 38.5289 47.9991 45.7652 47.9995 49.5479C47.9997 52.1433 44 52.3139 44 49.4893V15.6227C44 13.2663 45.9103 11.356 48.2667 11.356C59.3872 11.356 58.7163 11.3539 58.8589 11.3603C61.4373 11.4747 61.3113 15.3555 58.7304 15.3557Z" fill="#FEF6F6"/>
<path d="M64 15.6228V49.4894C64 50.0785 63.5224 50.5561 62.9333 50.5561C62.3443 50.5561 61.8667 50.0785 61.8667 49.4894V15.6228C61.8667 13.8582 60.4311 12.4228 58.6667 12.4228H48.2667C46.5023 12.4228 45.0667 13.8582 45.0667 15.6228V49.4894C45.0667 51.254 46.5023 52.6894 48.2667 52.6894H58.6667C59.2557 52.6894 59.7333 53.167 59.7333 53.7561C59.7333 54.3452 59.2557 54.8228 58.6667 54.8228H48.2667C45.3259 54.8228 42.9333 52.4302 42.9333 49.4894V15.6228C42.9333 12.682 45.3259 10.2894 48.2667 10.2894H58.6667C61.6075 10.2894 64 12.6818 64 15.6228ZM49.9252 33.1106C49.3271 33.2281 48.97 33.8186 49.088 34.364C49.2053 34.9645 49.7988 35.3185 50.3412 35.2013C50.8435 35.1029 51.1999 34.6598 51.1999 34.156C51.2 33.4785 50.5751 32.9782 49.9252 33.1106ZM56.5919 33.1106C55.9969 33.2274 55.636 33.8154 55.7547 34.364C55.8705 34.957 56.4577 35.3201 57.0079 35.2013C57.5101 35.1029 57.8665 34.6594 57.8665 34.156C57.8667 33.4873 57.2517 32.9762 56.5919 33.1106ZM49.9252 39.1106C48.984 39.2954 48.7641 40.5298 49.5412 41.0426C50.2424 41.5149 51.1999 41.0082 51.1999 40.156C51.2 39.4869 50.5837 38.9765 49.9252 39.1106ZM56.5919 39.1106C55.9969 39.2274 55.636 39.8154 55.7547 40.364C55.8705 40.957 56.4577 41.3201 57.0079 41.2013C57.5101 41.1029 57.8665 40.6594 57.8665 40.156C57.8667 39.4873 57.2517 38.9762 56.5919 39.1106ZM49.0667 46.1561C49.0667 47.0146 50.0296 47.5122 50.7252 47.0428C51.2752 46.6805 51.3692 45.8829 50.888 45.4014C50.2215 44.7352 49.0667 45.2032 49.0667 46.1561ZM56.3919 45.1706C55.5971 45.5021 55.5073 46.5802 56.2079 47.0426C57.0061 47.5802 58.04 46.8484 57.8452 45.948C57.7163 45.2872 57.0084 44.9141 56.3919 45.1706ZM58.1333 22.2894C58.1333 24.8626 56.0399 26.9561 53.4667 26.9561C50.8935 26.9561 48.8 24.8626 48.8 22.2894C48.8 19.7162 50.8935 17.6228 53.4667 17.6228C56.0399 17.6228 58.1333 19.7161 58.1333 22.2894ZM56 22.2894C56 20.8925 54.8636 19.7561 53.4667 19.7561C52.0697 19.7561 50.9333 20.8925 50.9333 22.2894C50.9333 23.6864 52.0697 24.8228 53.4667 24.8228C54.8636 24.8228 56 23.6862 56 22.2894ZM35.3333 22.0228C34.7443 22.0228 34.2667 22.5004 34.2667 23.0894V45.0894C34.2667 46.854 32.8311 48.2894 31.0667 48.2894H5.33333C3.56893 48.2894 2.13333 46.854 2.13333 45.0894V19.3561C2.13333 17.5916 3.56893 16.1561 5.33333 16.1561H11.8667C12.4557 16.1561 12.9333 15.6785 12.9333 15.0894C12.9333 14.5004 12.4557 14.0228 11.8667 14.0228H5.33333C2.39253 14.0228 0 16.4153 0 19.3561V45.0894C0 48.0302 2.39253 50.4228 5.33333 50.4228H31.0667C34.0075 50.4228 36.4 48.0302 36.4 45.0894V23.0894C36.4 22.5002 35.9224 22.0228 35.3333 22.0228ZM9.73333 28.6894C9.14427 28.6894 8.66667 29.167 8.66667 29.7561C8.66667 30.3452 9.14427 30.8228 9.73333 30.8228H11.8667V37.2228C11.8667 37.8118 12.3443 38.2894 12.9333 38.2894C13.5224 38.2894 14 37.8118 14 37.2228V30.8228H16.1333C16.7224 30.8228 17.2 30.3452 17.2 29.7561C17.2 29.167 16.7224 28.6894 16.1333 28.6894H9.73333ZM19.9799 28.7756C19.4384 29.0076 19.1876 29.6348 19.4196 30.1762L22.6196 37.6429C22.9876 38.5016 24.2113 38.5044 24.5805 37.6429L27.7805 30.1762C28.0125 29.6348 27.7616 29.0077 27.2203 28.7756C26.6791 28.5436 26.0517 28.7942 25.8196 29.3358L23.6 34.5149L21.3805 29.3358C21.1483 28.7945 20.5216 28.5434 19.9799 28.7756ZM28.6601 20.2993C29.9197 21.559 29.0153 23.7134 27.2459 23.7134C25.4777 23.7134 24.5711 21.56 25.8317 20.2993C26.6132 19.5176 27.8785 19.5174 28.6601 20.2993ZM32.1485 18.3194C32.5651 17.9029 32.5651 17.2276 32.1485 16.8109C29.4389 14.1012 25.0533 14.1009 22.3432 16.8109C21.9267 17.2274 21.9267 17.9028 22.3432 18.3194C22.7599 18.736 23.4351 18.7361 23.8517 18.3194C25.7275 16.4434 28.764 16.4433 30.6399 18.3194C31.0569 18.7362 31.7321 18.7356 32.1485 18.3194ZM18.3835 12.851C17.9669 13.2676 17.9669 13.9429 18.3835 14.3596C18.8001 14.7761 19.4753 14.7761 19.892 14.3596C23.9563 10.295 30.5351 10.2948 34.5997 14.3596C35.0164 14.7762 35.6917 14.776 36.1083 14.3596C36.5248 13.943 36.5248 13.2676 36.1083 12.851C31.21 7.95277 23.2823 7.95237 18.3835 12.851Z" fill="#E5474C"/>
</g>
<defs>
<clipPath id="clip0">
<rect width="64" height="64" fill="white"/>
</clipPath>
</defs>
</svg>
