<?xml version="1.0" encoding="UTF-8" standalone="no"?>
<svg
   xmlns:dc="http://purl.org/dc/elements/1.1/"
   xmlns:cc="http://creativecommons.org/ns#"
   xmlns:rdf="http://www.w3.org/1999/02/22-rdf-syntax-ns#"
   xmlns:svg="http://www.w3.org/2000/svg"
   xmlns="http://www.w3.org/2000/svg"
   viewBox="0 0 72 48"
   height="48"
   width="72"
   xml:space="preserve"
   id="svg2"
   version="1.1"><metadata
     id="metadata8"><rdf:RDF><cc:Work
         rdf:about=""><dc:format>image/svg+xml</dc:format><dc:type
           rdf:resource="http://purl.org/dc/dcmitype/StillImage" /></cc:Work></rdf:RDF></metadata><defs
     id="defs6" /><g
     transform="matrix(1.3333333,0,0,-1.3333333,0,48)"
     id="g10"><g
       transform="scale(0.1)"
       id="g12"><path
         id="path14"
         style="fill:#da141b;fill-opacity:1;fill-rule:nonzero;stroke:none"
         d="M 181.668,359.387 C 83.3438,359.387 3.4375,279.473 3.4375,181.145 3.4375,85.9688 78.3164,8.05078 172.297,3.16406 172.289,3.07813 172.289,2.99609 172.285,2.91016 h 18.762 c 0,0.08593 0,0.16797 -0.004,0.2539 93.977,4.88672 168.859,82.80474 168.859,177.98094 0,98.328 -79.91,178.242 -178.234,178.242 z m 0,-18.766 c 3.316,0 6.605,-0.113 9.867,-0.308 10.918,-10.977 20.828,-27.036 28.707,-46.641 -6.668,-4.332 -11.719,-10.945 -14.012,-18.715 h -68.125 c 8.661,28.145 20.973,51.148 35.208,65.449 2.765,0.141 5.554,0.215 8.355,0.215 z m -35.816,-4.027 C 134.16,319.781 124.867,298.738 118.203,274.953 H 52.668 c 22.2539,30.57 55.086,52.922 93.184,61.641 z m 73.234,-0.387 c 37.414,-8.969 69.644,-31.109 91.582,-61.25 h -40.191 c -4.098,13.875 -16.981,24.121 -32.125,24.121 -0.02,0 -0.047,-0.004 -0.067,-0.004 -5.414,13.821 -11.808,26.34 -19.199,37.133 z m 19.266,-55.894 c 8.253,0 14.738,-6.489 14.738,-14.739 0,-8.254 -6.485,-14.738 -14.738,-14.738 -8.247,0 -14.739,6.484 -14.739,14.738 0,8.25 6.492,14.739 14.739,14.739 z M 40.8828,256.195 h 72.7342 c -2.894,-13.672 -4.992,-28.043 -6.258,-42.871 C 96.3711,210.156 87.6484,201.488 84.4141,190.531 H 22.4805 c 1.3711,23.649 7.8672,45.899 18.4023,65.664 z m 92.1832,0 h 73.164 c 3.911,-13.242 15.84,-23.136 30.079,-24.015 1.976,-13.379 3.199,-27.344 3.586,-41.649 h -91.231 c -3.191,10.801 -11.707,19.391 -22.469,22.672 1.375,14.996 3.715,29.434 6.871,42.992 z m 137.411,0 h 51.976 c 10.539,-19.761 17.039,-42.015 18.406,-65.664 h -82.195 c -0.402,15.735 -1.758,31.102 -4,45.848 7.559,4.254 13.316,11.355 15.813,19.816 z M 116.535,195.891 h 0.008 c 8.254,0 14.738,-6.493 14.738,-14.746 0,-8.247 -6.492,-14.735 -14.738,-14.735 h -0.008 c -8.25,0 -14.734,6.488 -14.734,14.735 0,8.05 6.176,14.402 14.133,14.714 h 0.601 z M 22.4805,171.77 H 84.418 c 3.2304,-10.957 11.957,-19.625 22.941,-22.793 1.266,-14.832 3.364,-29.2 6.254,-42.875 H 40.8789 C 30.3438,125.863 23.8477,148.121 22.4805,171.77 Z m 126.1835,0 h 91.231 c -0.383,-14.305 -1.602,-28.27 -3.582,-41.653 -14.239,-0.875 -26.172,-10.765 -30.083,-24.015 h -73.171 c -3.153,13.562 -5.493,27.996 -6.868,42.992 10.766,3.281 19.286,11.867 22.473,22.676 z m 110.004,0 h 82.191 c -1.367,-23.649 -7.863,-45.907 -18.406,-65.668 h -51.976 c -2.497,8.461 -8.258,15.554 -15.817,19.816 2.246,14.742 3.61,30.113 4.008,45.852 z m -20.316,-60.309 c 8.253,0 14.738,-6.492 14.738,-14.7422 0,-8.254 -6.485,-14.7383 -14.738,-14.7383 -8.247,0 -14.739,6.4883 -14.739,14.7383 0,8.2502 6.492,14.7422 14.739,14.7422 z M 52.668,87.3398 h 65.535 c 6.66,-23.7812 15.942,-44.8164 27.633,-61.6328 -38.09,8.7227 -70.9141,31.0703 -93.168,61.6328 z m 85.437,0 h 68.125 c 2.293,-7.7695 7.348,-14.3945 14.024,-18.7226 -7.879,-19.5977 -17.777,-35.6445 -28.695,-46.6211 -3.274,-0.1992 -6.567,-0.3203 -9.887,-0.3203 -2.809,0 -5.602,0.0781 -8.371,0.2226 -14.235,14.3008 -26.539,37.3047 -35.196,65.4414 z m 132.372,0 h 40.191 C 288.73,57.2031 256.508,35.0664 219.102,26.0977 c 7.386,10.789 13.777,23.3086 19.191,37.1289 0.023,0 0.039,-0.0078 0.059,-0.0078 15.144,0 28.027,10.246 32.125,24.121" /><path
         id="path16"
         style="fill:#ffe6e6;fill-opacity:1;fill-rule:nonzero;stroke:none"
         d="M 217.168,312.195 H 501.18 c 17.425,0 31.554,-14.132 31.554,-31.554 v -63.114 c 0,-17.425 -14.129,-31.558 -31.554,-31.558 H 217.168 c -17.422,0 -31.551,14.133 -31.551,31.558 l -0.008,63.114 c 0.008,17.422 14.137,31.554 31.563,31.554" /><path
         id="path18"
         style="fill:#da141b;fill-opacity:1;fill-rule:nonzero;stroke:none"
         d="m 240.141,225.414 c -0.473,0 -0.875,0.145 -1.207,0.43 -0.286,0.328 -0.426,0.73 -0.426,1.207 v 39.758 l -11.789,-9.09 c -0.328,-0.281 -0.684,-0.422 -1.063,-0.422 -0.426,0 -0.828,0.234 -1.207,0.707 l -1.847,2.344 c -0.239,0.332 -0.356,0.664 -0.356,0.992 0,0.57 0.238,1.019 0.715,1.351 l 15.477,11.926 c 0.519,0.332 1.136,0.5 1.843,0.5 h 3.625 c 0.473,0 0.848,-0.168 1.133,-0.5 0.332,-0.281 0.496,-0.66 0.496,-1.133 v -46.433 c 0,-0.477 -0.164,-0.879 -0.496,-1.207 -0.285,-0.285 -0.66,-0.43 -1.133,-0.43 z m 21.257,0 c -0.429,0 -0.781,0.145 -1.066,0.43 -0.234,0.328 -0.352,0.707 -0.352,1.133 0,0.332 0.09,0.636 0.282,0.925 l 10.863,15.125 c -1.137,-0.289 -2.414,-0.429 -3.836,-0.429 -3.359,0.047 -6.34,0.832 -8.945,2.343 -2.555,1.516 -4.52,3.524 -5.891,6.036 -1.375,2.507 -2.062,5.183 -2.062,8.023 0,2.84 0.664,5.539 1.992,8.094 1.371,2.605 3.406,4.711 6.105,6.316 2.7,1.61 5.965,2.414 9.797,2.414 3.836,0 7.102,-0.777 9.801,-2.34 2.746,-1.566 4.805,-3.621 6.176,-6.179 1.375,-2.555 2.058,-5.278 2.058,-8.164 0,-2.555 -0.449,-4.828 -1.347,-6.817 -0.903,-1.937 -2.157,-4.066 -3.762,-6.39 l -13.707,-19.098 c -0.332,-0.43 -0.66,-0.785 -0.996,-1.066 -0.281,-0.235 -0.707,-0.356 -1.274,-0.356 z m 6.887,22.934 c 1.988,0 3.813,0.425 5.469,1.277 1.703,0.902 3.051,2.156 4.047,3.766 0.992,1.656 1.488,3.55 1.488,5.679 0,2.133 -0.496,4 -1.488,5.606 -0.996,1.66 -2.344,2.914 -4.047,3.765 -1.656,0.903 -3.481,1.348 -5.469,1.348 -1.988,0 -3.808,-0.445 -5.469,-1.348 -1.652,-0.851 -2.98,-2.105 -3.972,-3.765 -0.949,-1.606 -1.422,-3.473 -1.422,-5.606 0,-2.129 0.473,-4.023 1.422,-5.679 0.992,-1.61 2.32,-2.864 3.972,-3.766 1.661,-0.852 3.481,-1.277 5.469,-1.277 z m 23.395,-22.934 c -0.477,0 -0.875,0.145 -1.207,0.43 -0.285,0.328 -0.43,0.73 -0.43,1.207 v 2.269 c 0,1.09 0.594,2.129 1.773,3.125 l 15.059,15.051 c 3.645,3.031 6.148,5.492 7.523,7.383 1.372,1.941 2.059,3.98 2.059,6.109 0,2.746 -0.781,4.895 -2.344,6.461 -1.515,1.563 -3.738,2.34 -6.672,2.34 -2.75,0 -4.949,-0.824 -6.605,-2.484 -1.656,-1.606 -2.672,-3.762 -3.051,-6.457 -0.097,-0.571 -0.336,-1 -0.711,-1.282 -0.332,-0.234 -0.715,-0.355 -1.136,-0.355 h -3.692 c -0.43,0 -0.781,0.121 -1.066,0.355 -0.282,0.282 -0.426,0.614 -0.426,0.997 0.094,2.554 0.781,4.992 2.062,7.312 1.274,2.367 3.145,4.285 5.606,5.75 2.508,1.516 5.516,2.273 9.019,2.273 5.348,0 9.368,-1.398 12.071,-4.187 2.746,-2.746 4.117,-6.25 4.117,-10.508 0,-2.984 -0.758,-5.683 -2.274,-8.098 -1.468,-2.367 -3.761,-4.921 -6.89,-7.667 l -13.629,-13.844 h 22.156 c 0.52,0 0.922,-0.168 1.207,-0.5 0.328,-0.281 0.492,-0.66 0.492,-1.137 v -2.906 c 0,-0.477 -0.164,-0.879 -0.492,-1.207 -0.332,-0.285 -0.738,-0.43 -1.207,-0.43 z m 39.73,0 c -0.472,0 -0.879,0.145 -1.211,0.43 -0.281,0.328 -0.422,0.73 -0.422,1.207 v 5.105 c 0,0.477 0.141,0.856 0.422,1.141 0.332,0.328 0.739,0.496 1.211,0.496 h 5.11 c 0.472,0 0.875,-0.168 1.207,-0.496 0.332,-0.285 0.5,-0.664 0.5,-1.141 v -5.105 c 0,-0.477 -0.168,-0.879 -0.5,-1.207 -0.332,-0.285 -0.735,-0.43 -1.207,-0.43 z m 11.828,0 c -0.375,0 -0.734,0.145 -1.062,0.43 -0.281,0.281 -0.43,0.636 -0.43,1.062 0,0.426 0.168,0.852 0.5,1.278 l 12.356,16.117 -11.575,15.265 c -0.332,0.379 -0.496,0.805 -0.496,1.282 0,0.422 0.141,0.777 0.422,1.062 0.285,0.285 0.641,0.43 1.07,0.43 h 3.618 c 0.711,0 1.328,-0.383 1.847,-1.137 l 9.442,-12.285 9.445,12.215 c 0.281,0.375 0.543,0.66 0.781,0.847 0.282,0.239 0.637,0.36 1.063,0.36 h 3.48 c 0.426,0 0.781,-0.145 1.067,-0.43 0.285,-0.285 0.425,-0.64 0.425,-1.062 0,-0.477 -0.168,-0.903 -0.5,-1.282 L 362.98,244.16 375.336,228.184 c 0.328,-0.426 0.492,-0.852 0.492,-1.278 0,-0.426 -0.14,-0.781 -0.426,-1.062 -0.281,-0.285 -0.636,-0.43 -1.066,-0.43 h -3.762 c -0.707,0 -1.324,0.356 -1.844,1.066 l -9.941,12.993 -10.082,-12.993 c -0.285,-0.332 -0.57,-0.593 -0.855,-0.781 -0.235,-0.187 -0.563,-0.285 -0.993,-0.285 z m 35.055,0 c -0.375,0 -0.734,0.145 -1.063,0.43 -0.281,0.281 -0.429,0.636 -0.429,1.062 0,0.426 0.172,0.852 0.504,1.278 l 12.351,16.117 -11.57,15.265 c -0.336,0.379 -0.5,0.805 -0.5,1.282 0,0.422 0.141,0.777 0.426,1.062 0.281,0.285 0.636,0.43 1.062,0.43 h 3.621 c 0.715,0 1.328,-0.383 1.848,-1.137 l 9.445,-12.285 9.442,12.215 c 0.285,0.375 0.543,0.66 0.781,0.847 0.285,0.239 0.637,0.36 1.066,0.36 h 3.477 c 0.426,0 0.781,-0.145 1.066,-0.43 0.285,-0.285 0.426,-0.64 0.426,-1.062 0,-0.477 -0.168,-0.903 -0.496,-1.282 l -11.715,-15.406 12.356,-15.976 c 0.324,-0.426 0.492,-0.852 0.492,-1.278 0,-0.426 -0.141,-0.781 -0.422,-1.062 -0.285,-0.285 -0.641,-0.43 -1.066,-0.43 h -3.766 c -0.707,0 -1.324,0.356 -1.84,1.066 l -9.941,12.993 -10.086,-12.993 c -0.285,-0.332 -0.571,-0.593 -0.852,-0.781 -0.238,-0.187 -0.566,-0.285 -0.996,-0.285 z m 37.902,0 c -0.472,0 -0.879,0.145 -1.211,0.43 -0.281,0.328 -0.425,0.73 -0.425,1.207 v 5.105 c 0,0.477 0.144,0.856 0.425,1.141 0.332,0.328 0.739,0.496 1.211,0.496 h 5.11 c 0.472,0 0.875,-0.168 1.207,-0.496 0.328,-0.285 0.496,-0.664 0.496,-1.141 v -5.105 c 0,-0.477 -0.168,-0.879 -0.496,-1.207 -0.332,-0.285 -0.735,-0.43 -1.207,-0.43 z m 11.828,0 c -0.382,0 -0.734,0.145 -1.066,0.43 -0.285,0.281 -0.426,0.636 -0.426,1.062 0,0.426 0.168,0.852 0.496,1.278 l 12.352,16.117 -11.566,15.265 c -0.333,0.379 -0.504,0.805 -0.504,1.282 0,0.422 0.144,0.777 0.429,1.062 0.285,0.285 0.641,0.43 1.063,0.43 h 3.625 c 0.711,0 1.324,-0.383 1.844,-1.137 l 9.445,-12.285 9.441,12.215 c 0.285,0.375 0.547,0.66 0.782,0.847 0.285,0.239 0.64,0.36 1.066,0.36 h 3.48 c 0.426,0 0.778,-0.145 1.063,-0.43 0.281,-0.285 0.426,-0.64 0.426,-1.062 0,-0.477 -0.164,-0.903 -0.496,-1.282 l -11.719,-15.406 12.359,-15.976 c 0.332,-0.426 0.496,-0.852 0.496,-1.278 0,-0.426 -0.144,-0.781 -0.429,-1.062 -0.282,-0.285 -0.637,-0.43 -1.063,-0.43 h -3.766 c -0.707,0 -1.32,0.356 -1.843,1.066 l -9.942,12.993 -10.082,-12.993 c -0.281,-0.332 -0.566,-0.593 -0.851,-0.781 -0.235,-0.187 -0.567,-0.285 -0.992,-0.285 z m 35.055,0 c -0.379,0 -0.734,0.145 -1.066,0.43 -0.282,0.281 -0.426,0.636 -0.426,1.062 0,0.426 0.168,0.852 0.496,1.278 l 12.356,16.117 -11.571,15.265 c -0.336,0.379 -0.5,0.805 -0.5,1.282 0,0.422 0.145,0.777 0.43,1.062 0.281,0.285 0.637,0.43 1.062,0.43 h 3.621 c 0.711,0 1.325,-0.383 1.848,-1.137 l 9.442,-12.285 9.445,12.215 c 0.281,0.375 0.543,0.66 0.781,0.847 0.281,0.239 0.637,0.36 1.063,0.36 h 3.48 c 0.426,0 0.781,-0.145 1.063,-0.43 0.285,-0.285 0.429,-0.64 0.429,-1.062 0,-0.477 -0.168,-0.903 -0.5,-1.282 l -11.715,-15.406 12.352,-15.976 c 0.332,-0.426 0.5,-0.852 0.5,-1.278 0,-0.426 -0.145,-0.781 -0.426,-1.062 -0.281,-0.285 -0.64,-0.43 -1.062,-0.43 h -3.766 c -0.707,0 -1.328,0.356 -1.848,1.066 l -9.941,12.993 -10.078,-12.993 c -0.285,-0.332 -0.57,-0.593 -0.852,-0.781 -0.242,-0.187 -0.574,-0.285 -0.996,-0.285 h -3.621" /></g></g></svg>