<svg width="57" height="49" viewBox="0 0 57 49" fill="none" xmlns="http://www.w3.org/2000/svg">
<path d="M28.4999 0.0273438C21.2026 0.0273438 13.905 2.80815 8.34302 8.37036C-2.78101 19.4944 -2.78101 37.5601 8.34302 48.6843C8.72657 49.0687 9.34918 49.0691 9.73332 48.6855C10.1175 48.302 10.1181 47.6794 9.7345 47.2952C9.73411 47.2948 9.73372 47.2944 9.73332 47.294C-0.639518 36.9212 -0.639518 20.1337 9.73332 9.76087C20.1062 -0.611977 36.8936 -0.611977 47.2665 9.76087C57.6393 20.1337 57.6393 36.9212 47.2665 47.294C46.8821 47.6776 46.8814 48.3 47.2649 48.6843C47.6485 49.0687 48.2709 49.0695 48.6552 48.6859C48.6558 48.6853 48.6562 48.6849 48.6568 48.6843C59.7808 37.5603 59.7808 19.4946 48.6568 8.37036C43.095 2.80815 35.7974 0.0273438 28.4999 0.0273438ZM28.4999 3.03777C22.0859 3.03777 15.6681 5.48693 10.7759 10.3793C0.991222 20.164 0.991222 36.0428 10.7759 45.8274C10.9638 46.0233 11.275 46.0295 11.4708 45.8416C11.6666 45.6537 11.6729 45.3425 11.485 45.1466C11.4804 45.1419 11.4757 45.1372 11.4708 45.1325C2.06187 35.7234 2.06187 20.4836 11.4708 11.0747C16.1753 6.37022 22.3359 4.02074 28.4999 4.02074C28.7714 4.02467 28.9945 3.80763 28.9983 3.53614C29.002 3.26464 28.7852 3.04151 28.5137 3.03777C28.5093 3.03758 28.5046 3.03758 28.4999 3.03777ZM44.2083 11.8072C43.9529 11.8149 43.7105 11.9216 43.5324 12.1048L31.2058 24.4314C30.4283 23.915 29.498 23.6124 28.4999 23.6124C25.7971 23.6124 23.5851 25.8245 23.5851 28.5273C23.5851 31.23 25.7971 33.4421 28.4999 33.4421C31.2027 33.4421 33.4147 31.23 33.4147 28.5273C33.4147 27.5293 33.1122 26.5989 32.5957 25.8213L44.9223 13.4948C45.5654 12.8698 45.1045 11.7809 44.2083 11.8072ZM28.4999 25.5784C30.1401 25.5784 31.4488 26.8871 31.4488 28.5273C31.4488 30.1674 30.1401 31.4762 28.4999 31.4762C26.8597 31.4762 25.551 30.1674 25.551 28.5273C25.551 26.8871 26.8597 25.5784 28.4999 25.5784ZM28.4999 26.0698C27.1485 26.0698 26.0425 27.1759 26.0425 28.5273C26.0386 28.7987 26.2556 29.0219 26.5271 29.0256C26.7986 29.0295 27.0217 28.8125 27.0255 28.541C27.0255 28.5363 27.0255 28.5318 27.0255 28.5271C27.0255 27.7069 27.6797 27.0526 28.4999 27.0526C28.7714 27.0565 28.9945 26.8395 28.9983 26.568C29.0022 26.2965 28.7852 26.0734 28.5137 26.0696C28.5093 26.0696 28.5046 26.0696 28.4999 26.0698Z" fill="#DA141B"/>
</svg>
