<?xml version="1.0" encoding="UTF-8" standalone="no"?>
<svg
   xmlns:dc="http://purl.org/dc/elements/1.1/"
   xmlns:cc="http://creativecommons.org/ns#"
   xmlns:rdf="http://www.w3.org/1999/02/22-rdf-syntax-ns#"
   xmlns:svg="http://www.w3.org/2000/svg"
   xmlns="http://www.w3.org/2000/svg"
   viewBox="0 0 49.333332 48"
   height="48"
   width="49.333332"
   xml:space="preserve"
   id="svg2"
   version="1.1"><metadata
     id="metadata8"><rdf:RDF><cc:Work
         rdf:about=""><dc:format>image/svg+xml</dc:format><dc:type
           rdf:resource="http://purl.org/dc/dcmitype/StillImage" /></cc:Work></rdf:RDF></metadata><defs
     id="defs6" /><g
     transform="matrix(1.3333333,0,0,-1.3333333,0,48)"
     id="g10"><g
       transform="scale(0.1)"
       id="g12"><path
         id="path14"
         style="fill:#da141b;fill-opacity:1;fill-rule:nonzero;stroke:none"
         d="m 70.6016,208.336 c -14.9922,0 -27.1875,-12.199 -27.1875,-27.188 0,-14.988 12.1953,-27.191 27.1875,-27.191 14.9882,0 27.1875,12.203 27.1875,27.191 0,14.989 -12.1993,27.188 -27.1875,27.188 z m 0,114.793 c -14.9922,0 -27.1875,-12.195 -27.1875,-27.188 0,-14.988 12.1953,-27.183 27.1875,-27.183 14.9882,0 27.1875,12.195 27.1875,27.183 0,14.993 -12.1993,27.188 -27.1875,27.188 z m 0,-42.293 c -8.3282,0 -15.1055,6.777 -15.1055,15.105 0,8.336 6.7773,15.11 15.1055,15.11 8.3242,0 15.1054,-6.774 15.1054,-15.11 0,-8.328 -6.7812,-15.105 -15.1054,-15.105 z m 238.6564,18.129 c 3.336,0 6.043,2.703 6.043,6.039 0,3.34 -2.707,6.047 -6.043,6.047 -3.34,0 -6.043,-2.707 -6.043,-6.047 0,-3.336 2.703,-6.039 6.043,-6.039 z m -24.168,0 c 3.34,0 6.039,2.703 6.039,6.039 0,3.34 -2.699,6.047 -6.039,6.047 -3.336,0 -6.043,-2.707 -6.043,-6.047 0,-3.336 2.707,-6.039 6.043,-6.039 z m 36.25,-18.129 c 3.34,0 6.043,2.707 6.043,6.043 0,3.34 -2.703,6.043 -6.043,6.043 -3.332,0 -6.039,-2.703 -6.039,-6.043 0,-3.336 2.707,-6.043 6.039,-6.043 z m -24.168,0 c 3.336,0 6.043,2.707 6.043,6.043 0,3.34 -2.707,6.043 -6.043,6.043 -3.336,0 -6.043,-2.703 -6.043,-6.043 0,-3.336 2.707,-6.043 6.043,-6.043 z m -36.25,18.129 c 3.336,0 6.043,2.703 6.043,6.039 0,3.34 -2.707,6.047 -6.043,6.047 -3.34,0 -6.039,-2.707 -6.039,-6.047 0,-3.336 2.699,-6.039 6.039,-6.039 z m 12.086,-18.129 c 3.332,0 6.039,2.707 6.039,6.043 0,3.34 -2.707,6.043 -6.039,6.043 -3.34,0 -6.043,-2.703 -6.043,-6.043 0,-3.336 2.703,-6.043 6.043,-6.043 z m -36.25,18.129 c 3.332,0 6.039,2.703 6.039,6.039 0,3.34 -2.707,6.047 -6.039,6.047 -3.34,0 -6.047,-2.707 -6.047,-6.047 0,-3.336 2.707,-6.039 6.047,-6.039 z m 12.078,-18.129 c 3.34,0 6.047,2.707 6.047,6.043 0,3.34 -2.707,6.043 -6.047,6.043 -3.336,0 -6.039,-2.703 -6.039,-6.043 0,-3.336 2.703,-6.043 6.039,-6.043 z m -36.254,18.129 c 3.34,0 6.047,2.703 6.047,6.039 0,3.34 -2.707,6.047 -6.047,6.047 -3.332,0 -6.035,-2.707 -6.035,-6.047 0,-3.336 2.703,-6.039 6.035,-6.039 z m 12.09,-18.129 c 3.336,0 6.039,2.707 6.039,6.043 0,3.34 -2.703,6.043 -6.039,6.043 -3.336,0 -6.043,-2.703 -6.043,-6.043 0,-3.336 2.707,-6.043 6.043,-6.043 z m 84.586,-96.668 c 3.336,0 6.043,2.703 6.043,6.043 0,3.336 -2.707,6.039 -6.043,6.039 -3.34,0 -6.043,-2.703 -6.043,-6.039 0,-3.34 2.703,-6.043 6.043,-6.043 z m -24.168,0 c 3.34,0 6.039,2.703 6.039,6.043 0,3.336 -2.699,6.039 -6.039,6.039 -3.336,0 -6.043,-2.703 -6.043,-6.039 0,-3.34 2.707,-6.043 6.043,-6.043 z m 36.25,-18.125 c 3.34,0 6.043,2.703 6.043,6.039 0,3.336 -2.703,6.047 -6.043,6.047 -3.332,0 -6.039,-2.711 -6.039,-6.047 0,-3.336 2.707,-6.039 6.039,-6.039 z m -24.168,0 c 3.336,0 6.043,2.703 6.043,6.039 0,3.336 -2.707,6.047 -6.043,6.047 -3.336,0 -6.043,-2.711 -6.043,-6.047 0,-3.336 2.707,-6.039 6.043,-6.039 z m -36.25,18.125 c 3.336,0 6.043,2.703 6.043,6.043 0,3.336 -2.707,6.039 -6.043,6.039 -3.34,0 -6.039,-2.703 -6.039,-6.039 0,-3.34 2.699,-6.043 6.039,-6.043 z m 12.086,-18.125 c 3.332,0 6.039,2.703 6.039,6.039 0,3.336 -2.707,6.047 -6.039,6.047 -3.34,0 -6.043,-2.711 -6.043,-6.047 0,-3.336 2.703,-6.039 6.043,-6.039 z m -36.25,18.125 c 3.332,0 6.039,2.703 6.039,6.043 0,3.336 -2.707,6.039 -6.039,6.039 -3.34,0 -6.047,-2.703 -6.047,-6.039 0,-3.34 2.707,-6.043 6.047,-6.043 z m 12.078,-18.125 c 3.34,0 6.047,2.703 6.047,6.039 0,3.336 -2.707,6.047 -6.047,6.047 -3.336,0 -6.039,-2.711 -6.039,-6.047 0,-3.336 2.703,-6.039 6.039,-6.039 z m -36.254,18.125 c 3.34,0 6.047,2.703 6.047,6.043 0,3.336 -2.707,6.039 -6.047,6.039 -3.332,0 -6.035,-2.703 -6.035,-6.039 0,-3.34 2.703,-6.043 6.035,-6.043 z m 12.09,-18.125 c 3.336,0 6.039,2.703 6.039,6.039 0,3.336 -2.703,6.047 -6.039,6.047 -3.336,0 -6.043,-2.711 -6.043,-6.047 0,-3.336 2.707,-6.039 6.043,-6.039 z M 70.6016,39.1641 c 14.9882,0 27.1875,12.1992 27.1875,27.1875 0,14.9882 -12.1993,27.1875 -27.1875,27.1875 -14.9922,0 -27.1875,-12.1993 -27.1875,-27.1875 0,-14.9883 12.1953,-27.1875 27.1875,-27.1875 z M 369.68,145.547 v 71.199 c 0,8.867 -4.168,16.774 -10.645,21.879 6.438,5.102 10.645,12.895 10.645,21.723 v 71.191 c 0,15.356 -12.492,27.844 -27.844,27.844 H 35.0039 c -15.3555,0 -27.84374,-12.488 -27.84374,-27.844 v -71.191 c 0,-8.828 4.20704,-16.621 10.64064,-21.723 C 11.3242,233.52 7.16016,225.613 7.16016,216.746 v -71.191 c 0,-8.875 4.24614,-16.707 10.73824,-21.805 C 11.4063,118.648 7.16016,110.816 7.16016,101.949 V 30.7578 C 7.16016,15.4023 19.6484,2.91016 35.0039,2.91016 h 147.3711 12.082 147.379 c 15.352,0 27.844,12.49214 27.844,27.84374 v 71.1951 c 0,8.879 -4.25,16.699 -10.739,21.801 6.489,5.098 10.739,12.93 10.739,21.797 z m -27.844,99.039 H 35.0039 c -8.6914,0 -15.7617,7.07 -15.7617,15.762 v 71.191 c 0,8.691 7.0703,15.762 15.7617,15.762 H 341.828 c 8.695,0 15.762,-7.071 15.762,-15.762 v -71.191 c 0,-8.692 -7.067,-15.762 -15.754,-15.762 z M 309.258,69.3711 c 3.336,0 6.043,2.707 6.043,6.043 0,3.3359 -2.707,6.0429 -6.043,6.0429 -3.34,0 -6.043,-2.707 -6.043,-6.0429 0,-3.336 2.703,-6.043 6.043,-6.043 z m -24.168,0 c 3.34,0 6.039,2.707 6.039,6.043 0,3.3359 -2.699,6.0429 -6.039,6.0429 -3.336,0 -6.043,-2.707 -6.043,-6.0429 0,-3.336 2.707,-6.043 6.043,-6.043 z m 36.25,-18.125 c 3.34,0 6.043,2.707 6.043,6.043 0,3.3359 -2.703,6.039 -6.043,6.039 -3.332,0 -6.039,-2.7031 -6.039,-6.039 0,-3.336 2.707,-6.043 6.039,-6.043 z m -24.168,0 c 3.336,0 6.043,2.707 6.043,6.043 0,3.3359 -2.707,6.039 -6.043,6.039 -3.336,0 -6.043,-2.7031 -6.043,-6.039 0,-3.336 2.707,-6.043 6.043,-6.043 z m -36.25,18.125 c 3.336,0 6.043,2.707 6.043,6.043 0,3.3359 -2.707,6.0429 -6.043,6.0429 -3.34,0 -6.039,-2.707 -6.039,-6.0429 0,-3.336 2.699,-6.043 6.039,-6.043 z m 12.086,-18.125 c 3.332,0 6.039,2.707 6.039,6.043 0,3.3359 -2.707,6.039 -6.039,6.039 -3.34,0 -6.043,-2.7031 -6.043,-6.039 0,-3.336 2.703,-6.043 6.043,-6.043 z m -36.25,18.125 c 3.332,0 6.039,2.707 6.039,6.043 0,3.3359 -2.707,6.0429 -6.039,6.0429 -3.34,0 -6.047,-2.707 -6.047,-6.0429 0,-3.336 2.707,-6.043 6.047,-6.043 z m 12.078,-18.125 c 3.34,0 6.047,2.707 6.047,6.043 0,3.3359 -2.707,6.039 -6.047,6.039 -3.336,0 -6.039,-2.7031 -6.039,-6.039 0,-3.336 2.703,-6.043 6.039,-6.043 z m -36.254,18.125 c 3.34,0 6.047,2.707 6.047,6.043 0,3.3359 -2.707,6.0429 -6.047,6.0429 -3.332,0 -6.035,-2.707 -6.035,-6.0429 0,-3.336 2.703,-6.043 6.035,-6.043 z m 12.09,-18.125 c 3.336,0 6.039,2.707 6.039,6.043 0,3.3359 -2.703,6.039 -6.039,6.039 -3.336,0 -6.043,-2.7031 -6.043,-6.039 0,-3.336 2.707,-6.043 6.043,-6.043 z M 70.6016,81.457 c 8.3242,0 15.1054,-6.7734 15.1054,-15.1054 0,-8.336 -6.7812,-15.1055 -15.1054,-15.1055 -8.3282,0 -15.1055,6.7695 -15.1055,15.1055 0,8.332 6.7773,15.1054 15.1055,15.1054 z M 357.59,101.949 V 30.7578 c 0,-8.6953 -7.067,-15.7656 -15.754,-15.7656 H 35.0039 c -8.6914,0 -15.7617,7.0703 -15.7617,15.7617 v 71.1951 c 0,8.688 7.0703,15.762 15.7617,15.762 H 341.828 c 8.695,0 15.762,-7.074 15.762,-15.762 z m -322.5861,27.84 c -8.6914,0 -15.7617,7.07 -15.7617,15.758 v 71.199 c 0,8.688 7.0703,15.758 15.7617,15.758 H 341.828 c 8.695,0 15.762,-7.07 15.762,-15.758 v -71.191 c 0,-8.696 -7.067,-15.766 -15.754,-15.766 z m 35.5977,36.254 c -8.3282,0 -15.1055,6.773 -15.1055,15.105 0,8.332 6.7773,15.102 15.1055,15.102 8.3242,0 15.1054,-6.77 15.1054,-15.102 0,-8.332 -6.7812,-15.105 -15.1054,-15.105" /></g></g></svg>