<svg width="72" height="53" viewBox="0 0 72 53" fill="none" xmlns="http://www.w3.org/2000/svg">
<path d="M52.3347 16.9844H51.6739L43.5035 2.71247C42.8705 1.60898 41.8483 0.820285 40.6251 0.492784C40.1704 0.371352 39.708 0.319054 39.2501 0.334219C38.4824 0.359755 37.7278 0.575189 37.0453 0.972494L2.35923 21.166C0.841486 22.0493 -0.00698175 23.6602 4.32784e-05 25.3105C0.00338853 26.1081 0.208007 26.9148 0.630735 27.6532L7.13658 39.0169V47.9094C7.13658 50.5333 9.2703 52.6671 11.8943 52.6671H52.3347C54.9586 52.6671 57.0925 50.5334 57.0925 47.9094V21.7421C57.0923 19.1181 54.9586 16.9844 52.3347 16.9844ZM7.13658 34.2271L6.22812 32.6401L7.13658 32.1112V34.2271ZM7.13658 29.3587L5.04613 30.5758L3.87184 28.5244L7.13658 26.6239V29.3587ZM7.13658 21.7421V23.8714L2.69208 26.4587C2.04957 25.3245 2.43494 23.8748 3.55549 23.2218L7.20159 21.0992C7.1726 21.3116 7.13658 21.5219 7.13658 21.7421ZM48.9318 16.9844H33.1178L44.9785 10.0789L48.9318 16.9844ZM43.7966 8.01447L28.3903 16.9843H23.6931L42.6226 5.96361L43.7966 8.01447ZM38.2429 3.02837C38.7818 2.7147 39.409 2.62761 40.0096 2.7903C40.6171 2.95288 41.1236 3.3455 41.4384 3.89491L41.4408 3.89926L18.9655 16.9844H14.27L38.2429 3.02837ZM54.7135 47.9094C54.7135 49.2207 53.6461 50.2882 52.3347 50.2882H11.8943C10.583 50.2882 9.5155 49.2207 9.5155 47.9094V21.7421C9.5155 20.4307 10.583 19.3632 11.8943 19.3632H52.3347C53.6461 19.3632 54.7135 20.4307 54.7135 21.7421V47.9094Z" fill="#DA141B"/>
<path d="M45.0503 36.0151C44.2697 36.0151 43.5113 36.1963 42.8201 36.5448C42.129 36.1963 41.3705 36.0151 40.59 36.0151C37.8848 36.0151 35.6836 38.1488 35.6836 40.7729C35.6836 43.3969 37.8848 45.5306 40.59 45.5306C41.3705 45.5306 42.129 45.3494 42.8201 45.0009C43.5113 45.3494 44.2697 45.5306 45.0503 45.5306C47.7555 45.5306 49.9567 43.3969 49.9567 40.7729C49.9567 38.1488 47.7556 36.0151 45.0503 36.0151ZM45.0503 43.1517C44.5009 43.1517 43.9724 42.9774 43.5182 42.6488C43.3102 42.4978 43.0651 42.4223 42.8201 42.4223C42.575 42.4223 42.3299 42.4978 42.1221 42.6488C41.6679 42.9775 41.1394 43.1517 40.59 43.1517C39.1961 43.1517 38.0624 42.0842 38.0624 40.7729C38.0624 39.4615 39.1961 38.3941 40.59 38.3941C41.1394 38.3941 41.6679 38.5683 42.1221 38.897C42.5379 39.1989 43.1025 39.1989 43.5183 38.897C43.9725 38.5682 44.501 38.3941 45.0504 38.3941C46.4443 38.3941 47.578 39.4615 47.578 40.7729C47.578 42.0842 46.4442 43.1517 45.0503 43.1517Z" fill="#DA141B"/>
<path d="M15.4629 38.3941H27.3572C28.0146 38.3941 28.5466 37.862 28.5466 37.2046C28.5466 36.5471 28.0146 36.0151 27.3572 36.0151H15.4629C14.8054 36.0151 14.2734 36.5471 14.2734 37.2046C14.2734 37.862 14.8054 38.3941 15.4629 38.3941Z" fill="#DA141B"/>
<path d="M32.1148 43.1516H15.4629C14.8054 43.1516 14.2734 43.6836 14.2734 44.3411C14.2734 44.9985 14.8054 45.5305 15.4629 45.5305H32.1148C32.7722 45.5305 33.3042 44.9985 33.3042 44.3411C33.3042 43.6836 32.7722 43.1516 32.1148 43.1516Z" fill="#DA141B"/>
<rect x="35.8477" width="35.8486" height="35.8486" rx="17.9243" fill="#FFE6E6"/>
<path d="M53.7701 29.2101C47.5473 29.2101 42.4844 24.1471 42.4844 17.9244C42.4844 11.7016 47.5473 6.63867 53.7701 6.63867C59.9928 6.63867 65.0558 11.7016 65.0558 17.9244C65.0558 24.1471 59.9928 29.2101 53.7701 29.2101ZM53.7701 8.37493C48.5057 8.37493 44.2206 12.6583 44.2206 17.9244C44.2206 23.1904 48.5057 27.4738 53.7701 27.4738C59.0344 27.4738 63.3195 23.1904 63.3195 17.9244C63.3195 12.6583 59.0344 8.37493 53.7701 8.37493Z" fill="#DA141B"/>
<path d="M58.9793 18.7925H53.7705C53.2913 18.7925 52.9023 18.4035 52.9023 17.9243V12.7155C52.9023 12.2363 53.2913 11.8474 53.7705 11.8474C54.2497 11.8474 54.6386 12.2363 54.6386 12.7155V17.0562H58.9793C59.4585 17.0562 59.8474 17.4451 59.8474 17.9243C59.8474 18.4035 59.4585 18.7925 58.9793 18.7925Z" fill="#DA141B"/>
</svg>
