<?xml version="1.0" encoding="UTF-8"?>
<!DOCTYPE svg PUBLIC "-//W3C//DTD SVG 1.1//EN" "http://www.w3.org/Graphics/SVG/1.1/DTD/svg11.dtd">
<!-- Creator: CorelDRAW 2020 (64-Bit) -->
<svg xmlns="http://www.w3.org/2000/svg" xml:space="preserve" width="1457px" height="1306px" version="1.1" style="shape-rendering:geometricPrecision; text-rendering:geometricPrecision; image-rendering:optimizeQuality; fill-rule:evenodd; clip-rule:evenodd"
viewBox="0 0 101.65 91.15"
 xmlns:xlink="http://www.w3.org/1999/xlink"
 xmlns:xodm="http://www.corel.com/coreldraw/odm/2003">
 <defs>
  <style type="text/css">
   <![CDATA[
    .str0 {stroke:#D02C25;stroke-width:3.78;stroke-linecap:round;stroke-linejoin:round;stroke-miterlimit:22.9256}
    .fil2 {fill:none}
    .fil1 {fill:#FFE6E6}
    .fil0 {fill:#D02C25;fill-rule:nonzero}
   ]]>
  </style>
 </defs>
 <g id="Слой_x0020_1">
  <metadata id="CorelCorpID_0Corel-Layer"/>
  <g id="_2722874686368">
   <path class="fil0" d="M50.72 87.66c0.96,0 1.74,0.79 1.74,1.75 0,0.96 -0.78,1.74 -1.74,1.74 -12.59,0 -23.98,-5.1 -32.23,-13.35 -8.22,-8.21 -13.31,-19.56 -13.35,-32.09l-2.16 2.16c-0.68,0.69 -1.79,0.69 -2.47,0 -0.68,-0.68 -0.68,-1.78 0,-2.46l5.35 -5.36c0.68,-0.68 1.79,-0.68 2.47,0l5.35 5.36c0.68,0.68 0.68,1.78 0,2.46 -0.68,0.69 -1.78,0.69 -2.46,0l-2.59 -2.58c0,0.09 0,0.19 0,0.29 0,11.62 4.71,22.14 12.33,29.76 7.61,7.61 18.14,12.32 29.76,12.32zm37.24 -46.2c-0.68,-0.68 -0.68,-1.79 0,-2.47 0.69,-0.68 1.79,-0.68 2.47,0l2.14 2.14c-1.03,-9.84 -5.46,-18.68 -12.09,-25.31 -7.62,-7.62 -18.14,-12.33 -29.76,-12.33 -0.96,0 -1.75,-0.78 -1.75,-1.75 0,-0.96 0.79,-1.74 1.75,-1.74 12.58,0 23.98,5.1 32.23,13.35 7.35,7.36 12.21,17.22 13.17,28.19l2.55 -2.55c0.68,-0.68 1.79,-0.68 2.47,0 0.68,0.68 0.68,1.79 0,2.47l-5.34 5.34c-0.06,0.05 -0.12,0.11 -0.18,0.16l0 0c-0.04,0.02 -0.07,0.05 -0.11,0.07l0 0c-0.04,0.03 -0.07,0.05 -0.11,0.07l0 0c-0.25,0.14 -0.54,0.22 -0.85,0.22 -0.31,0 -0.6,-0.08 -0.85,-0.22l0 0c-0.04,-0.02 -0.07,-0.04 -0.11,-0.07l0 0c-0.04,-0.02 -0.07,-0.05 -0.1,-0.07l-0.01 0c-0.06,-0.05 -0.12,-0.11 -0.18,-0.16l-5.34 -5.34z"/>
   <g>
    <rect class="fil1" width="40.94" height="27.74" rx="4.8" ry="5.93"/>
    <path class="fil0" d="M11.54 19.93c-0.11,0 -0.21,-0.04 -0.29,-0.12 -0.08,-0.08 -0.12,-0.18 -0.12,-0.29l0 -11.29c0,-0.13 0.04,-0.23 0.12,-0.31 0.08,-0.07 0.18,-0.11 0.29,-0.11l1.63 0c0.13,0 0.23,0.04 0.3,0.11 0.08,0.08 0.12,0.18 0.12,0.31l0 9.63 5.49 0c0.12,0 0.23,0.04 0.31,0.12 0.08,0.08 0.12,0.18 0.12,0.29l0 1.25c0,0.11 -0.04,0.21 -0.12,0.29 -0.08,0.08 -0.19,0.12 -0.31,0.12l-7.54 0zm13.09 -0.57c-0.11,0 -0.21,-0.04 -0.29,-0.12 -0.08,-0.08 -0.12,-0.18 -0.12,-0.29l0 -3.38 -3.31 0c-0.11,0 -0.21,-0.04 -0.29,-0.12 -0.08,-0.08 -0.12,-0.18 -0.12,-0.3l0 -0.93c0,-0.12 0.04,-0.22 0.12,-0.3 0.08,-0.08 0.18,-0.12 0.29,-0.12l3.31 0 0 -3.27c0,-0.13 0.04,-0.23 0.12,-0.3 0.08,-0.08 0.18,-0.12 0.29,-0.12l1.04 0c0.13,0 0.23,0.04 0.31,0.12 0.07,0.07 0.11,0.17 0.11,0.3l0 3.27 3.31 0c0.11,0 0.21,0.04 0.29,0.12 0.08,0.08 0.12,0.18 0.12,0.3l0 0.93c0,0.12 -0.03,0.22 -0.11,0.3 -0.08,0.08 -0.18,0.12 -0.3,0.12l-3.31 0 0 3.38c0,0.11 -0.04,0.21 -0.11,0.29 -0.08,0.08 -0.18,0.12 -0.31,0.12l-1.04 0z"/>
   </g>
   <g>
    <rect class="fil1" x="60.71" y="63.41" width="40.94" height="27.74" rx="4.8" ry="5.93"/>
    <path class="fil0" d="M65.93 83.34c-0.09,0 -0.18,-0.03 -0.25,-0.1 -0.08,-0.07 -0.11,-0.16 -0.11,-0.26 0,-0.05 0.02,-0.12 0.07,-0.21l3.86 -5.61 -3.62 -5.37c-0.05,-0.07 -0.07,-0.14 -0.07,-0.21 0,-0.1 0.04,-0.19 0.11,-0.26 0.08,-0.07 0.16,-0.1 0.25,-0.1l1.82 0c0.21,0 0.39,0.11 0.54,0.33l2.53 3.71 2.54 -3.71c0.13,-0.22 0.31,-0.33 0.54,-0.33l1.71 0c0.1,0 0.18,0.03 0.25,0.1 0.08,0.07 0.12,0.16 0.12,0.26 0,0.05 -0.03,0.12 -0.07,0.21l-3.62 5.37 3.88 5.61c0.03,0.07 0.05,0.14 0.05,0.21 0,0.1 -0.03,0.19 -0.1,0.26 -0.07,0.07 -0.16,0.1 -0.26,0.1l-1.86 0c-0.2,0 -0.38,-0.1 -0.53,-0.31l-2.74 -3.9 -2.7 3.9c-0.15,0.21 -0.33,0.31 -0.54,0.31l-1.8 0zm12.59 0c-0.11,0 -0.21,-0.04 -0.29,-0.12 -0.08,-0.08 -0.12,-0.18 -0.12,-0.29l0 -11.29c0,-0.13 0.04,-0.23 0.12,-0.31 0.08,-0.07 0.18,-0.11 0.29,-0.11l1.63 0c0.13,0 0.23,0.04 0.3,0.11 0.08,0.08 0.11,0.18 0.11,0.31l0 9.62 5.49 0c0.13,0 0.24,0.04 0.32,0.13 0.08,0.08 0.12,0.17 0.12,0.29l0 1.25c0,0.11 -0.04,0.21 -0.12,0.29 -0.08,0.08 -0.19,0.12 -0.32,0.12l-7.53 0zm13.09 -0.57c-0.11,0 -0.21,-0.04 -0.29,-0.12 -0.08,-0.08 -0.12,-0.18 -0.12,-0.29l0 -3.38 -3.31 0c-0.12,0 -0.21,-0.04 -0.29,-0.12 -0.09,-0.08 -0.13,-0.18 -0.13,-0.3l0 -0.93c0,-0.12 0.04,-0.22 0.13,-0.3 0.08,-0.08 0.17,-0.12 0.29,-0.12l3.31 0 0 -3.27c0,-0.13 0.04,-0.23 0.12,-0.3 0.08,-0.08 0.18,-0.12 0.29,-0.12l1.04 0c0.13,0 0.23,0.04 0.31,0.12 0.07,0.07 0.11,0.17 0.11,0.3l0 3.27 3.31 0c0.11,0 0.21,0.04 0.29,0.12 0.08,0.08 0.12,0.18 0.12,0.3l0 0.93c0,0.12 -0.04,0.22 -0.11,0.3 -0.08,0.08 -0.18,0.12 -0.3,0.12l-3.31 0 0 3.38c0,0.11 -0.04,0.21 -0.11,0.29 -0.08,0.08 -0.18,0.12 -0.31,0.12l-1.04 0z"/>
   </g>
   <polyline class="fil2 str0" points="38.31,47.18 45.59,54.45 63.34,36.7 "/>
  </g>
 </g>
</svg>
