<?xml version="1.0" encoding="UTF-8"?>
<!DOCTYPE svg PUBLIC "-//W3C//DTD SVG 1.1//EN" "http://www.w3.org/Graphics/SVG/1.1/DTD/svg11.dtd">
<!-- Creator: CorelDRAW 2021.5 -->
<svg xmlns="http://www.w3.org/2000/svg" xml:space="preserve" width="15.875mm" height="15.875mm" version="1.1" style="shape-rendering:geometricPrecision; text-rendering:geometricPrecision; image-rendering:optimizeQuality; fill-rule:evenodd; clip-rule:evenodd"
viewBox="0 0 112.82 112.82"
 xmlns:xlink="http://www.w3.org/1999/xlink"
 xmlns:xodm="http://www.corel.com/coreldraw/odm/2003">
 <defs>
  <style type="text/css">
   <![CDATA[
    .fil0 {fill:#DA141B}
   ]]>
  </style>
 </defs>
 <g id="Слой_x0020_1">
  <metadata id="CorelCorpID_0Corel-Layer"/>
  <path class="fil0" d="M3.3 89.24c0,-1.27 0.29,-3.31 0.53,-4.54 0.27,-1.38 0.79,-2.65 1.26,-3.81 0.79,-1.96 2.63,-4.56 4.1,-6.04 1.41,-1.42 3.98,-3.35 5.94,-4.19 6.63,-2.83 14.29,-2.45 20.03,1.7 0.95,0.69 1.99,1.47 2.79,2.27 2.43,2.41 4.76,6.25 5.47,9.73 1,4.86 0.78,8.35 -1.19,12.96 -3.11,7.28 -10.67,12.18 -18.45,12.18 -1.39,0 -3.21,-0.31 -4.5,-0.57 -3.59,-0.71 -7.34,-2.8 -9.88,-5.32 -2.43,-2.41 -4.76,-6.25 -5.47,-9.73 -0.24,-1.15 -0.64,-3.3 -0.64,-4.65zm109.51 -66.66l0 2.1c0,6.55 -3.55,12.48 -6.89,15.81 -3.33,3.33 -9.25,6.89 -15.81,6.89 -6.1,0 -7.64,-1.1 -8.59,-1.1 -0.21,0 -35.26,35.05 -35.26,35.26 0,0.59 0.55,2.13 0.72,3.03 1.41,7.36 -0.64,14.44 -5.28,19.96 -1.64,1.95 -0.94,1.15 -2.76,2.75 -4.63,4.04 -9.85,5.56 -16.26,5.56 -7.32,0 -14.27,-4.27 -18.42,-10.01 -0.92,-1.27 -1.38,-2.27 -2.08,-3.65 -1.32,-2.62 -2.04,-5.55 -2.2,-8.55l0 -2.6c0.24,-4.58 1.75,-9.12 4.37,-12.69 1.64,-2.24 3.38,-3.97 5.64,-5.6 1.27,-0.92 2.27,-1.38 3.65,-2.08 8.57,-4.34 16.38,-1.1 17.63,-1.1l30.9 -30.79c5.65,-5.65 4.46,-3.31 3.63,-7.71 -0.44,-2.31 -0.38,-3.24 -0.38,-5.57 0,-3.97 2.43,-10.49 4.56,-12.85 1.27,-1.4 3.15,-0.46 3.15,0.95 0,0.61 -1.05,1.99 -1.39,2.57 -2.53,4.24 -2.79,6.95 -2.79,11.75 0,3.63 1.99,8.63 3.93,11.05 0.73,0.91 1.45,1.73 2.29,2.56 0.79,0.78 1.9,1.6 2.86,2.21 1.06,0.68 1.88,1.17 3.16,1.68 9.43,3.77 19.24,0.75 24.87,-7.5 0.73,-1.07 1.19,-2.08 1.75,-3.32 0.78,-1.74 2.82,-8.59 0.88,-10.73 -0.52,-0.57 -1.06,-0.81 -2.06,-0.81 -2.29,0 -4.87,4.99 -8.37,6.61 -6.07,2.81 -13,-1.5 -13,-8.16 0,-6.79 7.49,-9.52 7.49,-12.12 0,-5.63 -9.77,-2.16 -12.03,-1.23 -1.67,0.69 -6.26,4.84 -6.26,0.35 0,-1.19 4.46,-3.3 5.66,-3.81 3.78,-1.6 6.26,-1.7 10.2,-1.7 3.29,0 5.95,2.96 5.95,6.17 0,2.85 -2.15,4.46 -3.69,6.01 -2.86,2.86 -3.8,3.17 -3.8,7 0,2.33 2.52,4.85 4.85,4.85l1.32 0c4.5,0 6.41,-7.49 11.9,-7.49 1.5,0 3.34,1 4.14,1.81 1.45,1.46 1.76,2.72 1.81,4.25zm-68.31 55.42c-0.64,-2.75 -6.95,-9.06 -9.7,-9.7 0.27,-1.01 7.32,-7.65 8.21,-8.54 2.85,-2.85 5.53,-5.53 8.37,-8.37 2.85,-2.84 5.53,-5.53 8.37,-8.37 0.88,-0.88 7.52,-7.94 8.54,-8.21 0.64,2.76 6.93,9.05 9.7,9.7 -0.25,0.93 -3.17,3.5 -4.02,4.35l-27.21 27.21c-0.68,0.68 -1.27,1.67 -2.26,1.93zm33.71 17.63c0,-2.11 0.62,-3.62 1.57,-4.82 3.11,-4.01 11.44,-2.88 11.44,4.82l0 13.88 -13 0 0 -13.88zm-15.64 -6.17c-1.67,0 -2.64,-1.26 -2.64,-2.42 0,-1.62 4.21,-5.2 5.34,-6.34l11.79 -11.79c2.91,-2.92 4.03,-4.79 8.21,-4.79 2.89,0 5.41,3.09 7,4.68l11.79 11.79c2.44,2.44 7.1,5.73 4.74,8.15 -1.79,1.83 -3.55,-0.13 -4.3,-0.88 -1.27,-1.28 -5.36,-5.89 -6.67,-5.89 -0.94,0 -1.76,0.68 -1.76,1.54 0,1.96 6.17,5.92 6.17,7.27l0 16.53c0,2.9 -4.85,2.2 -7.71,2.2l0 -15.2c0,-4.54 -4.33,-9.25 -9.91,-9.25 -5.14,0 -9.7,4.36 -9.7,9.47l0 14.98c-2.86,0 -7.71,0.69 -7.71,-2.2l0 -16.53c0,-0.66 1.46,-1.79 1.93,-2.26 2.18,-2.18 14.5,-14.71 15.48,-15.37 0.95,0.25 5.01,4.68 6,5.67 1.47,1.47 1.27,1.82 2.81,1.82 1.03,0 1.32,-1.13 1.32,-1.98 0,-0.89 -8.81,-9.69 -9.69,-9.69 -2.02,0 -4.14,2.93 -6.23,5.01l-13.22 13.22c-0.72,0.72 -1.81,2.26 -3.03,2.26zm-5.95 -2.86c0,1.95 0.28,3.57 1.94,4.89 1.47,1.17 3.03,1.77 5.11,1.28 0,4.19 0.01,8.37 0,12.56 -0,2.39 0.12,3.81 1.19,5.2 0.82,1.07 2.34,2.29 4.1,2.29l31.51 0c1.73,0 3.2,-1.16 4.01,-2.17 1.08,-1.34 1.29,-2.71 1.28,-5.11 -0.01,-4.26 0,-8.52 0,-12.78 3.75,0.9 7.05,-2.27 7.05,-5.07 0,-4.17 -2.24,-5.44 -5.67,-8.87 -5.32,-5.32 -10.5,-10.84 -16.08,-15.87 -1.48,-1.33 -3.86,-2.36 -6.23,-2.36 -4.28,0 -6.68,2.39 -8.87,4.57l-16.97 16.97c-0.97,0.97 -2.37,2.65 -2.37,4.47zm-44.07 -73.16c0.74,0 2.83,-2.01 5,-2.93 0.7,-0.29 1.25,-0.41 1.78,-0.87 1.94,-1.69 0.84,-6.34 4.24,-6.34 5.34,0 4.69,-0.65 6.31,4.05 1.28,3.73 1.65,2.04 5.51,4.63 0.57,0.38 1.67,1.31 2.13,1.41 0.98,0.22 4.45,-0.83 5.89,-0.83 1.1,0 1.59,1.5 2.08,2.33 1.92,3.27 2.33,2.81 -1.15,6.75 -2.01,2.28 -0.93,2.26 -0.93,5.24 0,3.56 -1.37,3.16 2.15,7.1 1.88,2.1 1.85,2.07 0.06,5.03 -0.35,0.58 -1.01,1.89 -1.52,2.24 -1.18,0.8 -3.5,-0.5 -6.65,-0.5l-4.52 2.75c-2.92,1.45 -1.88,0.43 -3.41,4.3 -1.32,3.34 -0.17,2.86 -6.83,2.86 -1.68,0 -2.15,-5.45 -3.52,-6.39 -0.42,-0.29 -1.12,-0.46 -1.7,-0.73 -1.98,-0.91 -4.11,-2.79 -4.7,-2.79 -1.63,0 -5.33,0.94 -6.05,0.77 -0.9,-0.22 -1.04,-0.8 -1.65,-1.88 -1.23,-2.16 -2.33,-3.31 -1.17,-4.67 0.64,-0.76 2.88,-3.21 3.17,-3.9 0.23,-0.56 -0.02,-3.61 -0.02,-5.08 0,-1.1 0.37,-2.22 0.08,-2.93 -0.81,-2.04 -4.75,-3.81 -3.39,-6.31 0.46,-0.84 1.98,-3.75 2.79,-4.07 1.11,-0.44 4.63,0.75 6.02,0.75zm10.14 -13.44l4.97 0c2.68,0.18 3.63,1.14 5.19,5.48 0.75,2.07 0.75,1.62 2.69,2.6 2.23,1.12 2.09,1.87 3.31,1.74 1.38,-0.15 3.25,-0.78 4.53,-0.75 3.03,0.09 4.28,2.63 5.59,4.97 0.55,0.99 1.47,2.42 1.47,3.81 0,3.25 -3.75,5.32 -3.75,6.61l0 5.29c0,0.94 3.75,3.35 3.75,6.61 0,1.51 -1.77,4.22 -2.41,5.3 -3.18,5.34 -5.8,2.63 -9.71,2.63 -0.19,0 -1.26,0.82 -1.61,1.03 -4.36,2.66 -2.75,0.54 -4.06,3.88 -2.09,5.31 -2.99,5 -9.32,5 -5.67,0 -5.26,-5.75 -6.53,-7.13 -0.2,-0.21 -1.86,-0.91 -2.33,-1.2l-1.99 -1.32c-2.17,-1.32 -6.87,3.23 -10.16,-2.83 -1.17,-2.16 -2.13,-3.5 -2.35,-4.87l0 -1.16c0.16,-1.02 0.76,-2.17 1.98,-3.74 2.49,-3.21 1.55,-0.6 1.55,-3.96 0,-4.42 0.95,-3.06 -1.49,-5.78 -1.7,-1.91 -2.04,-2.39 -2.04,-4.79 0,-0.93 0.25,-1.42 0.61,-2.03 1.57,-2.63 3.01,-6.61 6.82,-6.29 4.41,0.38 3.21,1.65 5.92,-0.14 0.56,-0.37 1.13,-0.7 1.64,-1 2.33,-1.35 1.49,0.09 2.57,-2.72 0.71,-1.84 1.52,-5.22 5.13,-5.22zm-4.63 27.32c0,-4.16 3.05,-7.27 6.61,-7.27 2.43,0 3.54,0.14 5.49,2 0.2,0.2 0.04,0.02 0.33,0.33 0.14,0.16 0.28,0.33 0.39,0.49 3.05,4.05 0.66,11.28 -5.77,11.28 -2.2,0 -3.79,-0.96 -4.94,-2.11 -0.03,-0.03 -0.08,-0.08 -0.11,-0.11l-1.28 -1.81c-0.32,-0.7 -0.73,-1.88 -0.73,-2.8zm17.63 0c0,-11.23 -14.81,-15.2 -20.06,-4.63 -4.05,8.16 4.48,17.88 13.61,14.05 3.27,-1.37 6.45,-4.89 6.45,-9.42zm-19.17 61.92c0,-2.81 1.66,-5.26 4.11,-6.47 6.99,-3.47 13.6,5.53 8.19,11.27 -4.57,4.85 -12.29,0.96 -12.29,-4.8zm-3.3 -0.88c0,3.43 0.59,5.78 3.02,8.21 6.81,6.81 17.91,1.25 17.91,-6.67 0,-3.43 -0.59,-5.78 -3.02,-8.22 -6.8,-6.8 -17.91,-1.26 -17.91,6.67zm39.44 -29.09c0,3.74 8.37,1.24 8.37,-4.41 0,-2.92 -3.1,-2.9 -3.47,-0.61 -0.24,1.44 0.04,1.53 -0.86,2.45 -0.95,0.97 -0.91,0.63 -2.45,0.86 -0.92,0.14 -1.59,0.55 -1.59,1.71zm-8.59 5.07c0,1.22 0.38,1.16 1.38,2.15 0.99,0.99 0.93,1.38 2.15,1.38 3.29,0 0.73,-5.07 -1.98,-5.07 -1.03,0 -1.54,0.51 -1.54,1.54zm18.73 -18.73c0,2.42 5.07,5.76 5.07,1.54 0,-0.55 -2.53,-3.09 -3.08,-3.09 -1.05,0 -1.98,0.07 -1.98,1.54z"/>
 </g>
</svg>
