<svg width="107" height="107" viewBox="0 0 107 107" fill="none" xmlns="http://www.w3.org/2000/svg">
<path fill-rule="evenodd" clip-rule="evenodd" d="M10.6165 88.5798H95.561V99.1981H10.6165V88.5798V88.5798ZM99.101 86.5888V12.0415C99.101 11.3785 99.8433 11.093 100.65 10.4925C101.19 10.091 101.961 9.34691 102.641 9.16641C102.641 34.247 102.427 60.2171 102.645 85.2663C102.652 86.1467 102.777 88.5817 100.871 88.5817C99.998 88.5817 99.101 87.5779 99.101 86.5906V86.5888ZM3.5382 9.16457C3.73344 9.21614 7.07825 11.2514 7.07825 12.0397V86.5869C7.07825 88.6701 3.49032 90.1436 3.53268 85.4874C3.76475 60.4031 3.5382 34.2819 3.5382 9.16457ZM33.6231 67.3432H72.5562C74.6651 67.3432 82.0565 68.3673 85.0716 68.7652L86.6151 68.9917C86.663 69.0046 86.7403 69.0377 86.779 69.0488C87.5139 69.2717 87.2708 68.8351 88.0738 70.8501L94.4577 85.0379H11.7252L18.5696 69.7616C18.9619 68.9309 19.019 68.9807 20.1167 68.8757L28.9797 67.7853C30.5601 67.6103 31.8457 67.3432 33.6249 67.3432H33.6231ZM70.7862 3.63532H72.5562V63.805H69.239C69.239 53.5422 69.88 43.9112 69.8947 33.7128C69.8965 32.2891 70.136 31.7347 70.1268 30.1838C70.1194 28.854 70.1286 27.526 70.1213 26.1962C70.112 24.6454 70.3515 24.091 70.3533 22.6672C70.3625 16.3183 70.788 9.8129 70.788 3.63532H70.7862ZM33.6231 3.63532H35.3931L35.6067 14.703C35.6086 16.1489 35.8443 16.8341 35.837 18.4549C35.8314 19.7092 35.8407 20.9653 35.8333 22.2196C35.8241 23.8239 36.069 24.4299 36.0617 25.9715L36.2864 33.49C36.4135 43.7767 36.9421 53.487 36.9421 63.805H33.6249V3.63532H33.6231ZM30.083 1.8653V64.0261C28.7145 64.0261 27.4436 64.2858 26.2814 64.4276L18.798 65.3504C17.249 65.5088 16.608 65.5566 15.9891 66.7446L11.4103 76.7643C11.2758 77.094 11.1966 77.2911 11.0677 77.5269L10.6183 78.1826V15.8008C10.6183 12.4854 11.2408 10.2365 9.64948 9.02643C8.27545 7.9821 2.8604 3.63348 1.77002 3.63348C0.699905 3.63348 0 4.33339 0 5.4035V87.2519C0 89.6849 2.43309 92.118 4.86618 92.118L7.07825 91.897C7.07825 93.9617 7.07825 96.0264 7.07825 98.0912C7.07825 103.718 6.03944 102.736 17.6965 102.736V106.276H21.2366V102.736H84.9463V106.276H88.4864V102.736C100.022 102.736 99.1065 103.701 99.1047 98.3122C99.1047 96.1738 99.1047 94.0354 99.1047 91.897C103.275 92.8677 106.183 90.1859 106.183 87.2519V5.4035C106.183 4.33339 105.483 3.63348 104.413 3.63348C103.243 3.63348 98.1985 7.81817 96.7913 8.84225C96.1485 9.31008 95.7672 9.52557 95.607 10.312L95.5628 78.1807C95.3289 77.9118 95.4504 78.0997 95.1944 77.665C95.0397 77.4035 94.9513 77.2008 94.8334 76.919L90.1919 66.741C89.3392 65.1072 86.698 65.2398 83.6368 64.8899C82.412 64.7499 81.2387 64.5897 79.8978 64.4257C78.7356 64.2839 77.4647 64.0242 76.0962 64.0242V1.86346C76.0962 -0.613837 72.7883 0.0934351 69.018 0.0934351C67.4616 0.0934351 67.3161 1.05673 67.2369 2.51547L66.8059 14.6938C66.8078 24.8351 65.92 37.31 65.9218 47.4328C65.9218 52.8681 65.4798 58.3108 65.4798 63.8014H40.705C40.705 53.6509 39.8191 41.1871 39.8209 31.0624C39.8209 23.4371 39.1523 14.2205 39.1578 6.50677C39.1578 4.8841 39.0197 3.81767 38.9479 2.51363C38.7784 -0.582526 37.9496 0.0915933 31.8567 0.0915933C30.7866 0.0915933 30.0867 0.791498 30.0867 1.86162L30.083 1.8653Z" fill="#E5474C"/>
<path fill-rule="evenodd" clip-rule="evenodd" d="M14.1543 95.6581H21.2344V92.118H14.1543V95.6581Z" fill="#E5474C"/>
<path fill-rule="evenodd" clip-rule="evenodd" d="M40.7012 81.4998H44.2394V77.9615H40.7012V81.4998Z" fill="#E5474C"/>
<path fill-rule="evenodd" clip-rule="evenodd" d="M47.7793 81.4998H51.3193V77.9615H47.7793V81.4998Z" fill="#E5474C"/>
<path fill-rule="evenodd" clip-rule="evenodd" d="M54.8574 81.4998H58.3975V77.9615H54.8574V81.4998Z" fill="#E5474C"/>
<path fill-rule="evenodd" clip-rule="evenodd" d="M61.9375 81.4998H65.4757V77.9615H61.9375V81.4998Z" fill="#E5474C"/>
<path fill-rule="evenodd" clip-rule="evenodd" d="M33.624 3.63343H35.394L35.6076 14.7011C35.6095 16.147 35.8452 16.8322 35.8379 18.453C35.8323 19.7073 35.8416 20.9634 35.8342 22.2178C35.825 23.822 36.0699 24.428 36.0626 25.9696L36.2873 33.4862C36.4144 43.773 36.9411 53.4832 36.9411 63.8013H33.624V3.63159V3.63343ZM10.6173 88.5779H95.5637V99.1962H10.6173V88.5779V88.5779ZM99.1019 86.5869V12.0397C99.1019 11.3766 99.8442 11.0911 100.651 10.4907C101.191 10.0891 101.962 9.34503 102.642 9.16452C102.642 34.2451 102.428 60.2152 102.646 85.2644C102.653 86.1449 102.778 88.5798 100.872 88.5798C99.9989 88.5798 99.1019 87.576 99.1019 86.5887V86.5869ZM3.5391 9.16268C3.73434 9.21425 7.07915 11.2477 7.07915 12.0378V86.5851C7.07915 88.6682 3.49121 90.1417 3.53358 85.4855C3.76565 60.4012 3.5391 34.2801 3.5391 9.16268ZM70.7871 3.63159H72.5571V63.8013H69.2399C69.2399 53.5385 69.8809 43.9074 69.8956 33.7091C69.8974 32.2853 70.1369 31.7309 70.1277 30.1801C70.1203 28.8503 70.1295 27.5223 70.1222 26.1925C70.1129 24.6416 70.3524 24.0872 70.3542 22.6635C70.3634 16.3128 70.7889 9.81101 70.7889 3.63159H70.7871Z" fill="#FFD2D2"/>
</svg>
