<?xml version="1.0" encoding="UTF-8"?>
<!DOCTYPE svg PUBLIC "-//W3C//DTD SVG 1.1//EN" "http://www.w3.org/Graphics/SVG/1.1/DTD/svg11.dtd">
<!-- Creator: CorelDRAW -->
<svg xmlns="http://www.w3.org/2000/svg" xml:space="preserve" width="149.83mm" height="127.096mm" version="1.1" shape-rendering="geometricPrecision" text-rendering="geometricPrecision" image-rendering="optimizeQuality" fill-rule="evenodd" clip-rule="evenodd"
viewBox="0 0 4648.83 3943.44"
 xmlns:xlink="http://www.w3.org/1999/xlink"
 xmlns:xodm="http://www.corel.com/coreldraw/odm/2003">
 <g id="Слой_x0020_1">
  <metadata id="CorelCorpID_0Corel-Layer"/>
  <g id="_1556449325920">
   <path fill="#E5474C" d="M1646.88 3286.78l2428.77 0 0 394 -2670.63 0c-12.28,44.97 -41.78,81.34 -78.45,105.28 -32.4,21.16 -72.63,33.78 -110.92,33.78 -7.02,0 -14.45,-0.53 -22.26,-1.61 -2.18,4.14 -4.52,8.33 -7.05,12.58l0 112.64 131.33 0 0 -131.33 2363.98 0 0 131.33 131.33 0 0 -131.33c428.01,0 394.05,35.78 394,-164.17 -0.02,-79.35 0,-158.69 0,-238.04 154.71,36.04 262.66,-63.52 262.66,-172.38l0 -1285.45c-19.78,10.51 -41.09,13.23 -62.99,10.57 -1.49,2.25 -3.09,4.56 -4.83,6.93 -9.23,12.55 -20.75,22.73 -33.58,30.41 -10.34,6.19 -21.64,10.7 -33.3,13.43 -0.41,386.1 0.21,771.08 3.5,1150.36 0.28,32.66 4.91,123 -65.79,123 -32.43,0 -65.67,-37.27 -65.67,-73.87l0 -1249.55c-2.23,0.11 -4.53,0.17 -6.88,0.17 -29.99,0 -58.96,-12.88 -79.77,-32.6 -6.3,-5.97 -11.99,-12.68 -16.88,-19.98 -2.2,-0.08 -4.38,-0.23 -6.56,-0.43 -6.97,-0.65 -13.88,-1.9 -20.6,-3.73l-0.63 994.2c-8.66,-9.96 -4.14,-2.99 -13.71,-19.12 -5.76,-9.7 -9,-17.2 -13.38,-27.66l-172.26 -377.7c-31.65,-60.63 -129.66,-55.72 -243.21,-68.7 -45.48,-5.2 -89.02,-11.14 -138.73,-17.23 -43.1,-5.28 -90.29,-14.91 -141.04,-14.91l0 -2306.53c0,-91.92 -122.73,-65.67 -262.66,-65.67 -57.76,0 -63.12,35.72 -66.09,89.86l-15.99 451.88c0.1,376.31 -32.85,839.18 -32.83,1214.82 0.01,201.67 -16.42,403.64 -16.42,607.41l-919.33 0c0,-376.64 -32.85,-839.13 -32.83,-1214.82 0.01,-282.93 -24.79,-624.92 -24.62,-911.12 0.03,-60.23 -5.13,-99.81 -7.78,-148.17 -6.3,-114.88 -37.02,-89.86 -263.09,-89.86 -39.71,0 -65.67,25.96 -65.67,65.67l0 2306.53c-50.76,0 -97.95,9.63 -141.04,14.91l-124.88 15.39c12.87,19.05 22.4,40.77 27.36,64.57l0.36 1.74c14.35,-4.18 27.87,-6.6 40.03,-6.6 44.74,0 85.06,14.8 117.62,38.98 5.64,4.19 11.02,8.67 16.14,13.42l23.39 -2.88c58.65,-6.52 106.32,-16.42 172.38,-16.42l1444.66 0c78.28,0 352.49,38.01 464.38,52.74l57.25 8.41c1.79,0.47 4.65,1.72 6.06,2.15 27.29,8.27 18.28,-7.89 48.05,66.87l236.88 526.49 -2377.48 0c2.36,8.08 4.21,16.23 5.45,24.24l-0.5 0.08c5.97,38.77 -0.2,75.06 -15.21,107.01zm2834.2 213.49c-8.66,-5.8 -17.27,-12.74 -25.66,-19.08 -2.09,-1.58 -7.09,-5.32 -10.26,-5.32 -7.04,0 -13.56,5.56 -13.56,12.2 0,9.66 12.29,15.99 22.46,23.62 3.08,2.31 23.85,18.91 27.01,19.75l0 71.16c-9.66,-5.11 -18.93,-11.39 -28.34,-17.07l-28.39 -17.02c-5.93,-3.35 -3.92,-6.49 -5.06,-17.31l-4.32 -41.09c-2.99,-14.53 -24.71,-13.6 -24.71,1.67 0,7.04 0.86,12.25 1.41,18.92 0.47,5.7 1.97,13.1 1.97,19.03 -8.15,-2.18 -28.68,-20.33 -38.63,-20.33 -3.54,0 -6.68,1.7 -8.52,3.68 -5.86,6.3 -4.05,14.82 2.4,19.38 5.36,3.78 29.52,16.42 31.87,19.64 -8.64,2.01 -22.04,8.68 -30.6,12.09 -5.8,2.31 -9.2,3.81 -10.74,10.32 -1.41,5.95 1.89,11.35 6.53,13.76 7.74,4.02 20.83,-3.74 31.24,-7.91 4.24,-1.69 28.32,-12 30.69,-12 1.23,0 13.03,7.47 15.04,8.68 5.32,3.21 41.82,26.13 45.95,27.24l0 1.36c-4.3,1.15 -10.95,6.21 -15.04,8.68 -5.25,3.17 -9.93,5.98 -15.24,9.15 -3.77,2.25 -28.67,18.08 -30.71,18.08 -4.48,0 -37.35,-14.83 -45.6,-18.1 -5.52,-2.19 -10.13,-5.02 -16.32,-1.81 -8.07,4.19 -11.96,17.65 4.21,24.08 5.49,2.18 26.2,11.73 30.6,12.09 -1.29,1.76 -7.87,5.19 -10.29,6.65 -9.9,5.98 -27.66,13.67 -27.66,23.17 0,8.4 6.64,12.88 14.23,12.88 6.21,0 29.41,-18.41 36.59,-20.33 0,13.8 -3.39,26.27 -3.39,39.99 0,11.74 21.49,15.27 24.71,-0.37 0.53,-2.56 0.89,-7.25 1.04,-9.8 0.2,-3.19 0.6,-7.06 1.07,-10.45 0.65,-4.65 2.61,-32.72 3.9,-35.41 1.34,-2.81 45.69,-27.73 52.91,-32.48 2.5,-1.64 4.69,-3.02 7.18,-4.34l0 71.16c-3.34,0.89 -35.52,26.12 -39.79,29.33 -4.66,3.5 -9.68,6.17 -9.68,14.04 0,6.31 6.43,12.2 12.88,12.2 5.67,0 10.39,-4.91 14.43,-7.93l13.14 -9.9c2.93,-2.41 5.99,-4.54 9.02,-6.57 0,10.16 0.04,20.34 -0,30.5 -0.02,5.87 -0.04,8.75 2.28,12.63 4.55,7.61 15.94,7.11 20.9,0.38 2.5,-3.4 1.9,-7.47 1.9,-13.01 -0.01,-10.16 0,-20.33 0,-30.5 3.79,1.01 22.21,15.98 26.72,19.36 6.52,4.9 14.24,8.27 20.48,0.05 9.08,-11.96 -4.96,-19.76 -13.03,-25.8 -11.3,-8.47 -22.5,-17.65 -34.18,-25.46l0 -70.48c2.17,0.58 5.44,2.92 7.42,4.1l22.87 13.73c4.35,2.6 26.43,16.94 30.71,18.08 0,10.86 3.81,37.31 4.8,49.42 0.72,8.78 2.29,15.11 10.15,17 6.49,1.56 15.54,-3.46 15.54,-10.17 0,-6.42 -0.75,-13.17 -1.55,-19.46 -0.72,-5.67 -1.84,-13.43 -1.84,-19.85l26.81 15.88c3.61,2.18 6.95,4.45 11.82,4.45 11.75,0 18.02,-16.12 3.17,-24.87 -5.07,-2.98 -9.33,-5.58 -14.4,-8.64 -3.39,-2.04 -12.54,-6.47 -14.52,-9.19 5.18,-1.2 11.38,-4.42 16.55,-6.49 5.84,-2.33 10.63,-4.29 16.38,-6.66 5.53,-2.28 9.57,-7.45 8.63,-13.48 -0.46,-2.97 -2.05,-6.19 -3.77,-7.76 -1.71,-1.56 -5.7,-3.55 -8.65,-3.55 -2.84,0 -24.28,8.94 -28.02,10.61 -2.64,1.18 -26.95,11.07 -27.56,11.07 -2.45,0 -6.35,-2.94 -8.17,-4.03 -6.15,-3.68 -51.58,-29.95 -53.5,-32.57 2.43,-3.31 60.87,-36.59 61,-36.59 5.24,0 46.5,20.47 55.12,21.41 7.84,0.84 13.33,-6.06 13.33,-13.28 0,-11.61 -19.89,-15.58 -29.13,-19.67 -3.38,-1.49 -8.43,-3.84 -12.22,-4.72 3.38,-4.62 30.22,-16.18 34.99,-22.61 6.36,-8.57 0.04,-20.09 -10.6,-20.09 -6.03,0 -31.32,17.18 -37.27,20.33 0,-12.9 3.39,-25.76 3.39,-38.63 0,-7.1 -8.22,-12.38 -14.98,-10.97 -13.49,2.81 -10.64,23.38 -13.09,41.19 -1.1,8 -2.42,16.96 -2.42,25.36 -3.94,0.92 -11.17,6.35 -15.04,8.68 -5.37,3.23 -41.79,26.12 -45.96,27.24l0 -70.48c14.59,-9.77 28.56,-21.37 42.7,-31.85 13.68,-10.13 5.29,-24.4 -5.42,-24.4 -6.43,0 -22.21,13.78 -27.98,18.11 -2.3,1.73 -6.8,5.63 -9.3,6.29 0,-9.94 0,-19.88 0,-29.82 0,-5.36 0.78,-9.9 -1.61,-13.3 -5.11,-7.28 -16.78,-7.87 -21.44,0.42 -2.19,3.89 -2.04,6.9 -2.03,12.88 0.02,9.94 0,19.88 0,29.82zm-200.62 -2225.52c-19.01,-12.73 -37.92,-27.98 -56.33,-41.88 -4.59,-3.47 -15.58,-11.69 -22.54,-11.69 -15.46,0 -29.76,12.2 -29.76,26.79 0,21.22 26.98,35.11 49.32,51.87 6.76,5.08 52.36,41.51 59.31,43.37l0 156.26c-21.21,-11.23 -41.57,-25.02 -62.22,-37.48l-62.34 -37.36c-13.01,-7.34 -8.6,-14.25 -11.11,-38l-9.48 -90.23c-6.57,-31.9 -54.26,-29.87 -54.26,3.66 0,15.46 1.89,26.91 3.1,41.54 1.04,12.51 4.34,28.76 4.34,41.8 -17.91,-4.78 -62.98,-44.65 -84.83,-44.65 -7.78,0 -14.68,3.73 -18.71,8.07 -12.86,13.84 -8.89,32.56 5.28,42.57 11.76,8.3 64.82,36.06 69.99,43.12 -18.97,4.42 -48.4,19.06 -67.2,26.55 -12.73,5.08 -20.21,8.36 -23.59,22.67 -3.09,13.07 4.15,24.92 14.33,30.21 16.99,8.83 45.73,-8.21 68.59,-17.36 9.3,-3.72 62.18,-26.36 67.39,-26.36 2.69,0 28.62,16.41 33.02,19.06 11.68,7.06 91.84,57.38 100.91,59.81l0 2.98c-9.45,2.52 -24.04,13.65 -33.02,19.07 -11.52,6.95 -21.8,13.13 -33.48,20.1 -8.27,4.93 -62.94,39.71 -67.44,39.71 -9.85,0 -82.02,-32.56 -100.13,-39.76 -12.12,-4.82 -22.24,-11.03 -35.85,-3.96 -17.71,9.21 -26.26,38.75 9.26,52.88 12.05,4.79 57.52,25.75 67.2,26.56 -2.83,3.86 -17.28,11.39 -22.6,14.6 -21.75,13.13 -60.74,30.02 -60.74,50.88 0,18.45 14.58,28.28 31.25,28.28 13.65,0 64.59,-40.43 80.36,-44.65 0,30.31 -7.44,57.69 -7.44,87.8 0,25.79 47.19,33.53 54.26,-0.8 1.15,-5.62 1.95,-15.93 2.29,-21.52 0.43,-7 1.3,-15.51 2.34,-22.96 1.43,-10.21 5.73,-71.84 8.56,-77.76 2.94,-6.16 100.34,-60.88 116.2,-71.31 5.49,-3.61 10.29,-6.63 15.76,-9.53l0 156.26c-7.33,1.96 -77.99,57.37 -87.38,64.42 -10.24,7.68 -21.26,13.53 -21.26,30.83 0,13.85 14.11,26.79 28.27,26.79 12.46,0 22.81,-10.78 31.69,-17.42l28.86 -21.74c6.43,-5.28 13.15,-9.96 19.81,-14.42 0,22.32 0.08,44.65 -0,66.97 -0.05,12.89 -0.09,19.21 5.01,27.73 10,16.71 35.01,15.62 45.89,0.83 5.5,-7.47 4.18,-16.4 4.17,-28.57 -0.01,-22.32 0,-44.65 0,-66.97 8.31,2.22 48.77,35.08 58.68,42.52 14.31,10.76 31.28,18.16 44.97,0.11 19.93,-26.27 -10.89,-43.39 -28.6,-56.66 -24.82,-18.6 -49.4,-38.74 -75.05,-55.91l0 -154.77c4.75,1.27 11.93,6.4 16.29,9.01l50.21 30.15c9.57,5.71 58.03,37.2 67.44,39.71 0,23.85 8.38,81.93 10.54,108.51 1.58,19.29 5.03,33.18 22.29,37.34 14.24,3.43 34.13,-7.6 34.13,-22.33 0,-14.1 -1.65,-28.92 -3.4,-42.73 -1.58,-12.46 -4.04,-29.49 -4.04,-43.58l58.88 34.87c7.94,4.78 15.26,9.77 25.94,9.77 25.81,0 39.58,-35.41 6.97,-54.6 -11.13,-6.55 -20.49,-12.27 -31.63,-18.97 -7.44,-4.47 -27.52,-14.22 -31.9,-20.19 11.37,-2.65 25,-9.72 36.35,-14.25 12.82,-5.11 23.34,-9.43 35.96,-14.64 12.14,-5.01 21,-16.36 18.96,-29.62 -1.01,-6.51 -4.51,-13.59 -8.29,-17.04 -3.76,-3.43 -12.51,-7.8 -18.99,-7.8 -6.24,0 -53.32,19.62 -61.52,23.3 -5.79,2.59 -59.18,24.32 -60.51,24.32 -5.39,0 -13.95,-6.45 -17.94,-8.85 -13.5,-8.08 -113.26,-65.76 -117.48,-71.51 5.33,-7.27 133.65,-80.36 133.94,-80.36 11.51,0 102.1,44.96 121.04,47.01 17.22,1.86 29.26,-13.32 29.26,-29.15 0,-25.51 -43.66,-34.22 -63.95,-43.2 -7.42,-3.28 -18.5,-8.44 -26.83,-10.38 7.43,-10.14 66.36,-35.54 76.84,-49.65 13.97,-18.81 0.08,-44.1 -23.27,-44.1 -13.23,0 -68.77,37.72 -81.85,44.65 0,-28.34 7.44,-56.56 7.44,-84.83 0,-15.59 -18.05,-27.19 -32.9,-24.1 -29.62,6.17 -23.35,51.34 -28.74,90.44 -2.42,17.56 -5.32,37.23 -5.32,55.69 -8.65,2.02 -24.53,13.95 -33.02,19.07 -11.8,7.1 -91.78,57.37 -100.92,59.81l0 -154.77c32.04,-21.46 62.72,-46.94 93.76,-69.94 30.03,-22.25 11.6,-53.58 -11.91,-53.58 -14.11,0 -48.78,30.25 -61.44,39.76 -5.05,3.79 -14.93,12.35 -20.41,13.82 0,-21.82 0,-43.65 0,-65.48 0,-11.76 1.7,-21.74 -3.54,-29.2 -11.23,-15.97 -36.85,-17.28 -47.07,0.91 -4.8,8.55 -4.48,15.15 -4.45,28.29 0.05,21.82 0,43.66 0,65.48zm-3577.22 1178.06c-42.85,-28.69 -85.46,-63.06 -126.96,-94.39 -10.34,-7.81 -35.1,-26.35 -50.79,-26.35 -34.85,0 -67.08,27.49 -67.08,60.37 0,47.83 60.82,79.14 111.16,116.9 15.24,11.43 118,93.56 133.67,97.75l0 352.16c-47.81,-25.3 -93.69,-56.39 -140.23,-84.48l-140.51 -84.2c-29.32,-16.55 -19.38,-32.12 -25.03,-85.64l-21.36 -203.35c-14.81,-71.88 -122.29,-67.33 -122.29,8.26 0,34.84 4.26,60.65 6.99,93.62 2.34,28.2 9.77,64.83 9.77,94.2 -40.37,-10.78 -141.94,-100.62 -191.17,-100.62 -17.54,0 -33.08,8.4 -42.18,18.19 -28.98,31.19 -20.04,73.39 11.9,95.94 26.49,18.7 146.08,81.26 157.73,97.17 -42.76,9.96 -109.09,42.95 -151.45,59.85 -28.69,11.44 -45.55,18.84 -53.17,51.08 -6.96,29.46 9.36,56.16 32.3,68.09 38.3,19.91 103.07,-18.5 154.58,-39.12 20.97,-8.39 140.14,-59.4 151.89,-59.4 6.07,0 64.5,36.98 74.42,42.97 26.34,15.9 206.98,129.33 227.43,134.79l0 6.71c-21.29,5.68 -54.18,30.75 -74.42,42.97 -25.96,15.67 -49.13,29.59 -75.45,45.29 -18.63,11.12 -141.86,89.5 -151.99,89.5 -22.19,0 -184.85,-73.38 -225.66,-89.61 -27.31,-10.86 -50.14,-24.86 -80.8,-8.92 -39.92,20.75 -59.19,87.34 20.86,119.17 27.16,10.8 129.65,58.04 151.45,59.85 -6.37,8.7 -38.95,25.67 -50.94,32.9 -49.01,29.58 -136.88,67.65 -136.88,114.67 0,41.58 32.85,63.72 70.43,63.72 30.76,0 145.57,-91.13 181.11,-100.62 0,68.31 -16.77,130.02 -16.77,197.88 0,58.12 106.36,75.57 122.29,-1.8 2.61,-12.66 4.38,-35.9 5.16,-48.5 0.96,-15.77 2.94,-34.96 5.28,-51.74 3.22,-23.02 12.92,-161.92 19.29,-175.25 6.63,-13.89 226.14,-137.21 261.88,-160.71 12.37,-8.13 23.19,-14.96 35.53,-21.48l0 352.16c-16.53,4.41 -175.76,129.29 -196.92,145.17 -23.07,17.32 -47.91,30.5 -47.91,69.48 0,31.2 31.8,60.37 63.72,60.37 28.07,0 51.42,-24.29 71.42,-39.26l65.04 -48.99c14.49,-11.91 29.64,-22.44 44.65,-32.49 0,50.3 0.18,100.64 -0.01,150.94 -0.11,29.04 -0.21,43.29 11.29,62.5 22.55,37.66 78.91,35.19 103.42,1.88 12.39,-16.84 9.41,-36.97 9.39,-64.39 -0.03,-50.31 0,-100.62 0,-150.93 18.73,5 109.93,79.05 132.24,95.83 32.24,24.24 70.49,40.93 101.35,0.25 44.91,-59.21 -24.54,-97.78 -64.46,-127.7 -55.93,-41.92 -111.34,-87.31 -169.13,-126.01l0 -348.81c10.7,2.86 26.89,14.43 36.71,20.31l113.16 67.95c21.56,12.86 130.78,83.84 151.98,89.5 0,53.76 18.88,184.65 23.76,244.55 3.55,43.48 11.33,74.78 50.24,84.15 32.1,7.74 76.92,-17.14 76.92,-50.32 0,-31.76 -3.72,-65.17 -7.66,-96.31 -3.56,-28.08 -9.1,-66.47 -9.1,-98.22l132.7 78.59c17.89,10.76 34.39,22.03 58.47,22.03 58.15,0 89.2,-79.8 15.72,-123.05 -25.09,-14.76 -46.17,-27.64 -71.29,-42.74 -16.77,-10.09 -62.03,-32.05 -71.88,-45.5 25.63,-5.97 56.34,-21.9 81.93,-32.11 28.9,-11.52 52.59,-21.26 81.04,-32.99 27.36,-11.28 47.34,-36.88 42.73,-66.74 -2.26,-14.68 -10.17,-30.64 -18.69,-38.41 -8.47,-7.72 -28.2,-17.58 -42.79,-17.58 -14.06,0 -120.17,44.23 -138.65,52.52 -13.05,5.85 -133.39,54.81 -136.36,54.81 -12.15,0 -31.43,-14.55 -40.43,-19.94 -30.43,-18.21 -255.27,-148.2 -264.77,-161.17 12,-16.38 301.22,-181.11 301.85,-181.11 25.95,0 230.11,101.33 272.8,105.94 38.8,4.19 65.95,-30.01 65.95,-65.69 0,-57.49 -98.39,-77.12 -144.13,-97.35 -16.73,-7.4 -41.7,-19.02 -60.46,-23.39 16.74,-22.85 149.55,-80.08 173.18,-111.9 31.48,-42.4 0.18,-99.39 -52.44,-99.39 -29.82,0 -154.98,85.01 -184.46,100.62 0,-63.87 16.77,-127.48 16.77,-191.17 0,-35.14 -40.68,-61.27 -74.15,-54.3 -66.76,13.89 -52.63,115.7 -64.77,203.82 -5.45,39.57 -12,83.91 -12,125.51 -19.5,4.54 -55.28,31.45 -74.42,42.97 -26.58,16 -206.84,129.29 -227.44,134.79l0 -348.81c72.21,-48.35 141.34,-105.79 211.31,-157.62 67.69,-50.15 26.14,-120.75 -26.84,-120.75 -31.81,0 -109.93,68.18 -138.47,89.6 -11.37,8.53 -33.66,27.84 -46,31.14 0,-49.19 -0,-98.38 0,-147.57 0,-26.5 3.83,-49 -7.97,-65.81 -25.3,-36 -83.06,-38.95 -106.09,2.05 -10.82,19.26 -10.1,34.15 -10.03,63.75 0.11,49.19 0,98.39 0,147.58zm2124.75 571.31l131.33 0 0 -131.33 -131.33 0 0 131.33zm-262.66 0l131.33 0 0 -131.33 -131.33 0 0 131.33zm-262.66 0l131.33 0 0 -131.33 -131.33 0 0 131.33zm-262.66 0l131.33 0 0 -131.33 -131.33 0 0 131.33zm2429.65 -1877.6l0 -946.04c0,-39.71 -25.96,-65.67 -65.67,-65.67 -43.4,0 -230.6,155.3 -282.8,193.28 -23.86,17.36 -37.97,25.37 -43.93,54.57l-0.52 807.88c6.72,-1.83 13.6,-3.06 20.5,-3.67l0 -0.34c1.98,-0.17 3.97,-0.29 5.97,-0.36 5.41,-8.05 11.82,-15.4 19.02,-21.88 20.93,-18.84 49.54,-30.67 79.36,-30.67 1.82,0 3.61,0.05 5.39,0.16l0 -687.05c0,-24.61 27.53,-35.18 57.45,-57.46 20.03,-14.91 48.68,-42.52 73.88,-49.24 0,246.12 -0.56,494.56 -1.22,744.07 9.84,2.48 19.35,6.23 28.18,11.19 14.68,8.25 27.88,19.82 38.2,34.52 1.07,1.53 2.09,3.03 3.05,4.52 3.6,-0.45 7.21,-0.7 10.85,-0.7 18.6,0 36.43,4.68 52.27,12.9zm-3808.64 -806.5c7.24,1.93 131.33,77.41 131.33,106.71l0 1635.83c24.48,3.34 48.31,11.17 69.83,23.25 23.4,13.14 44.56,31.3 61.5,54.15l0 -1573.7c0,-122.99 23.1,-206.48 -35.95,-251.34 -51.01,-38.75 -251.89,-200.12 -292.38,-200.12 -39.71,0 -65.67,25.96 -65.67,65.67l0 2000.31c18.73,0.54 36.56,4.66 53.06,10.81 3.82,-10.47 9.03,-21.61 16.12,-34.25 14.58,-25.95 33.93,-46.69 56.26,-62.39 3.12,-2.19 6.3,-4.28 9.52,-6.26 -0.37,-591.79 -3.64,-1187.46 -3.64,-1768.69zm2495.31 -205.21l65.67 0 0 2232.65 -123.12 0c0,-380.8 23.82,-738.22 24.34,-1116.61 0.07,-52.81 8.93,-73.42 8.6,-130.94 -0.28,-49.32 0.06,-98.65 -0.22,-147.97 -0.33,-57.52 8.53,-78.13 8.6,-130.94 0.33,-235.61 16.13,-476.93 16.13,-706.19zm-1378.99 0l65.67 0 7.93 410.7c0.07,53.65 8.85,79.08 8.54,139.2 -0.24,46.57 0.11,93.14 -0.16,139.7 -0.34,59.51 8.74,82.01 8.51,139.24l8.34 278.94c4.72,381.69 24.3,741.99 24.3,1124.86l-123.13 0 0 -2232.65z"/>
   <path fill="#E5474C" fill-opacity="0.411765" d="M3221.99 2367.45l0 -2232.65 -65.67 0c0,229.26 -15.81,470.58 -16.13,706.19 -0.07,52.81 -8.93,73.42 -8.6,130.94 0.28,49.32 -0.06,98.65 0.22,147.97 0.33,57.52 -8.53,78.13 -8.6,130.94 -0.52,378.38 -24.34,735.8 -24.34,1116.61l123.12 0zm984.99 -1236.26l130.14 -58.37c0.65,-245.72 1.19,-490.39 1.19,-732.81 -25.2,6.73 -53.84,34.33 -73.88,49.24 -29.92,22.28 -57.45,32.85 -57.45,57.46l0 684.47zm127.96 882.23l-127.96 -50.07 0 1249.55c0,36.6 33.24,73.87 65.67,73.87 70.7,0 66.07,-90.35 65.79,-123 -3.29,-379.28 -3.91,-764.26 -3.5,-1150.36zm-3542.6 69.13l0 -1635.83c0,-29.29 -124.09,-104.77 -131.33,-106.71 0,581.23 3.27,1176.89 3.64,1768.69l127.69 -26.15zm1108.12 284.9c0,-382.87 -19.58,-743.17 -24.3,-1124.86l-8.34 -278.94c0.24,-57.23 -8.85,-79.73 -8.51,-139.24 0.27,-46.57 -0.08,-93.14 0.16,-139.7 0.31,-60.12 -8.47,-85.56 -8.54,-139.2l-7.93 -410.7 -65.67 0 0 2232.65 123.13 0z"/>
  </g>
 </g>
</svg>
